<svg width="44" height="44" viewBox="0 0 44 44" fill="none" xmlns="http://www.w3.org/2000/svg">
<path d="M8.40373 35.7545H7.62109V36.5371H8.40373V35.7545Z" fill="white"/>
<path d="M17.6713 35.3631H16.8887V36.1456H17.6713V35.3631Z" fill="white"/>
<path d="M27.9476 35.3631H27.165V36.1456H27.9476V35.3631Z" fill="white"/>
<path d="M38.264 35.7545H37.4814V36.5371H38.264V35.7545Z" fill="white"/>
<path d="M21.394 38.1018H20.6113V38.8845H21.394V38.1018Z" fill="white"/>
<path d="M12.8236 37.134C12.9648 37.134 13.0797 37.2489 13.0797 37.3902H13.9391C13.9391 36.7751 13.4387 36.2747 12.8236 36.2747C12.2084 36.2747 11.708 36.7751 11.708 37.3902C11.708 38.0054 12.2084 38.5058 12.8236 38.5058V37.6464C12.6823 37.6464 12.5674 37.5315 12.5674 37.3902C12.5674 37.2489 12.6823 37.134 12.8236 37.134Z" fill="white"/>
<path d="M31.9753 37.5637L31.7064 36.7476C31.4233 36.8409 31.1936 37.0388 31.0594 37.3048C30.9253 37.5708 30.9028 37.8733 30.9961 38.1562C31.0893 38.4392 31.2872 38.669 31.5533 38.8031C31.7115 38.8828 31.8824 38.9231 32.0545 38.9231C32.1719 38.9231 32.29 38.9042 32.4048 38.8665C32.6879 38.7732 32.9176 38.5753 33.0517 38.3093C33.1859 38.0432 33.2083 37.7408 33.115 37.4578L32.2989 37.7269C32.3202 37.7919 32.3151 37.8612 32.2843 37.9224C32.2535 37.9835 32.2007 38.0289 32.1357 38.0503C32.0706 38.0718 32.0012 38.0665 31.9402 38.0358C31.879 38.005 31.8336 37.9521 31.8121 37.8872C31.7908 37.8222 31.7959 37.7528 31.8268 37.6917C31.8576 37.6307 31.9104 37.5851 31.9753 37.5637Z" fill="white"/>
<path d="M37.505 32.857C36.9213 33.2007 36.3631 33.5277 35.4128 33.6261V33.1268C37.2587 32.9033 38.6938 31.3282 38.6938 29.4231V28.9934H38.2641C37.1216 28.9934 36.0979 29.5101 35.4128 30.3213V29.3411C37.2587 29.1177 38.6938 27.5426 38.6938 25.6376V25.2079H38.2641C37.1216 25.2079 36.0979 25.7245 35.4128 26.5359V25.5555C37.2587 25.3321 38.6938 23.757 38.6938 21.852V21.4223H38.2641C37.4816 21.4223 36.7548 21.6649 36.1542 22.0782V20.1023H35.2948V22.8971C34.8169 23.5244 34.5324 24.3064 34.5324 25.154V25.2512C33.8473 24.4257 32.8141 23.8989 31.6599 23.8989L31.2302 23.899V24.3286C31.2302 26.2482 32.6873 27.8333 34.5534 28.0375V28.5448C34.5397 28.6746 34.5324 28.8062 34.5324 28.9396V29.0368C33.8473 28.2112 32.8141 27.6845 31.6599 27.6845H31.2302V28.1142C31.2302 30.0338 32.6873 31.6189 34.5534 31.8231V32.3303C34.5397 32.4602 34.5324 32.5918 34.5324 32.7253V33.1549H34.5534V33.652C33.3771 33.6066 32.7572 33.2418 32.1036 32.8569C31.3365 32.4051 30.5434 31.9382 28.9669 31.9382C27.3905 31.9382 26.5973 32.4052 25.8303 32.8569C25.2109 33.2216 24.621 33.5678 23.5601 33.6419V33.2069V33.1782C25.1921 32.9667 26.4572 31.5689 26.4572 29.8802V29.4505H26.0275C25.0498 29.4505 24.1694 29.8747 23.5601 30.5484V30.2471C24.1085 29.6362 24.4087 28.8553 24.4087 28.0281C24.4087 27.1395 24.0627 26.304 23.4342 25.6758L23.1305 25.372L22.8267 25.6758C22.1982 26.3041 21.8522 27.1395 21.8522 28.0281C21.8522 28.8553 22.1524 29.6362 22.7008 30.2471V30.5484C22.0916 29.8746 21.2111 29.4505 20.2334 29.4505H19.8037V29.8802C19.8037 31.5689 21.0688 32.9667 22.7008 33.1782V33.2069V33.6419C21.6391 33.5681 21.0489 33.2218 20.4293 32.8569C19.6623 32.4051 18.8692 31.9382 17.2927 31.9382C15.7165 31.9382 14.9233 32.4053 14.1563 32.857C13.5068 33.2393 12.8902 33.6016 11.7284 33.6507V33.1294C13.5843 32.9155 15.0305 31.3355 15.0305 29.4231V28.9934H14.6008C13.4468 28.9934 12.4135 29.5202 11.7284 30.3456V29.3438C13.5843 29.13 15.0305 27.5498 15.0305 25.6376V25.2079H14.6008C13.3797 25.2079 12.2937 25.7974 11.6126 26.7068C11.2004 25.0944 9.73563 23.8988 7.99677 23.8988L7.56709 23.8989V24.3286C7.56709 26.2408 9.01324 27.8209 10.8691 28.0348V28.9395V29.0367C10.1841 28.2111 9.15083 27.6844 7.99677 27.6844H7.56709V28.1141C7.56709 30.0264 9.01324 31.6065 10.8691 31.8203V32.7252V33.1549V33.6281C9.90596 33.5324 9.34367 33.2032 8.75569 32.8569C7.9887 32.4051 7.19558 31.9381 5.61914 31.9381V32.7974C6.96123 32.7974 7.62105 33.186 8.31955 33.5974C9.08655 34.0492 9.87966 34.5162 11.456 34.5162C13.0323 34.5162 13.8254 34.049 14.5925 33.5973C15.291 33.1861 15.9507 32.7974 17.2927 32.7974C18.6348 32.7974 19.2946 33.186 19.9931 33.5973C20.7601 34.0491 21.5533 34.5162 23.1297 34.5162C24.7061 34.5162 25.4992 34.0491 26.2662 33.5974C26.9648 33.1861 27.6246 32.7974 28.9668 32.7974C30.309 32.7974 30.9689 33.186 31.6675 33.5974C32.4346 34.0492 33.2277 34.5162 34.8043 34.5162C36.3807 34.5162 37.1739 34.0491 37.941 33.5974C38.6396 33.1861 39.2994 32.7974 40.6417 32.7974V31.9381C39.0652 31.9382 38.2721 32.4052 37.505 32.857ZM37.7965 29.8909C37.5974 31.1009 36.6398 32.0586 35.4298 32.2575C35.6289 31.0475 36.5864 30.09 37.7965 29.8909ZM37.7965 26.1054C37.5974 27.3153 36.6398 28.273 35.4298 28.4719C35.6289 27.2619 36.5864 26.3043 37.7965 26.1054ZM37.7965 22.3199C37.5974 23.5299 36.6398 24.4875 35.4298 24.6864C35.6289 23.4765 36.5864 22.5188 37.7965 22.3199ZM32.1278 24.7964C33.3378 24.9953 34.2954 25.953 34.4944 27.163C33.2844 26.964 32.3267 26.0064 32.1278 24.7964ZM32.1278 28.582C33.3378 28.7809 34.2954 29.7387 34.4944 30.9486C33.2844 30.7496 32.3267 29.792 32.1278 28.582ZM25.5518 30.356C25.3597 31.3357 24.5859 32.1095 23.6061 32.3017C23.7984 31.322 24.5721 30.5482 25.5518 30.356ZM20.7092 30.356C21.6889 30.5481 22.4626 31.3219 22.6548 32.3017C21.675 32.1096 20.9012 31.3358 20.7092 30.356ZM14.1331 29.8909C13.9342 31.1009 12.9766 32.0586 11.7666 32.2575C11.9656 31.0475 12.9232 30.09 14.1331 29.8909ZM14.1331 26.1054C13.9342 27.3153 12.9766 28.273 11.7666 28.4719C11.9656 27.2619 12.9232 26.3043 14.1331 26.1054ZM8.46462 24.7964C9.67462 24.9953 10.6322 25.953 10.8312 27.163C9.62116 26.964 8.66356 26.0064 8.46462 24.7964ZM8.46462 28.582C9.67462 28.7809 10.6322 29.7387 10.8312 30.9486C9.62116 30.7496 8.66356 29.792 8.46462 28.582ZM23.1305 29.4048C22.858 29.0013 22.7116 28.5259 22.7116 28.0282C22.7116 27.5304 22.858 27.0552 23.1305 26.6515C23.4029 27.0551 23.5493 27.5304 23.5493 28.0282C23.5493 28.5259 23.4029 29.0013 23.1305 29.4048Z" fill="white"/>
<path d="M40.6418 39.8791H37.4814V40.7385H40.6418V39.8791Z" fill="white"/>
<path d="M35.7243 39.8791H23.6924V40.7385H35.7243V39.8791Z" fill="white"/>
<path d="M21.7336 39.8791H9.64746V40.7385H21.7336V39.8791Z" fill="white"/>
<path d="M8.01207 39.8791H5.61914V40.7385H8.01207V39.8791Z" fill="white"/>
<path d="M40.6417 41.3033H5.61914V42.1627H40.6417V41.3033Z" fill="white"/>
<path d="M6.51652 9.08472C6.74305 9.56202 7.11026 9.94479 7.57845 10.1915L10.6039 11.7859L11.0045 11.0256L7.97909 9.43122C7.67641 9.27181 7.43914 9.02457 7.29296 8.71648C6.97207 8.03955 6.46822 7.50554 5.8358 7.17236L3.75904 6.07794L3.3584 6.83823L5.43525 7.93265C5.90189 8.17851 6.27572 8.57692 6.51652 9.08472Z" fill="white"/>
<path d="M10.3733 3.40862C11.239 3.1081 12.1618 3.17762 12.972 3.60456L14.9158 4.62894C15.1153 4.73412 15.262 4.91064 15.3288 5.12617C15.3956 5.34162 15.3744 5.57012 15.2693 5.76967L14.064 8.05672C13.8926 7.9609 13.7668 7.80544 13.7085 7.61724C13.6482 7.42268 13.6673 7.21634 13.7623 7.03613L14.665 5.32297L13.9614 4.95223C13.9642 4.94699 13.9672 4.94201 13.97 4.93676L13.2098 4.53612C12.8148 5.28567 12.1516 5.83644 11.3423 6.08721C10.533 6.33789 9.67446 6.2584 8.925 5.86343L8.52436 6.62372C9.11226 6.93352 9.75275 7.09062 10.3989 7.09062C10.7998 7.09062 11.2028 7.0302 11.5966 6.90817C12.3928 6.66161 13.0768 6.18569 13.5784 5.54185L13.002 6.63575C12.8325 6.95715 12.7783 7.31766 12.8403 7.66975C12.6104 7.79419 12.4177 7.98479 12.2899 8.22731C12.1287 8.53325 12.0921 8.88155 12.183 9.21344C11.858 9.32611 11.5913 9.55298 11.4301 9.85892C11.2617 10.1783 11.2278 10.5442 11.3344 10.889C11.4412 11.234 11.6759 11.5167 11.9954 11.6852L12.3566 11.8755C12.0932 13.7543 12.9571 15.6356 14.5469 16.6633L12.6192 20.3212L22.1259 25.331L22.9179 23.8281L34.5653 17.8007L33.3935 15.5352L25.2411 19.4196L28.687 12.8807L28.1272 12.5858L28.745 11.4135L23.9589 8.89126C24.435 7.48627 23.8212 5.8844 22.4669 5.1706L19.8003 3.76552C18.4906 3.07527 16.9056 3.42246 15.9901 4.51335C15.8314 4.24222 15.6014 4.01886 15.3165 3.86873L13.3727 2.84436C12.3645 2.31301 11.1686 2.22286 10.0914 2.59686C9.07376 2.95023 7.96439 2.87607 7.04795 2.3931L5.99341 1.83734L5.59277 2.59763L6.64731 3.15339C7.77352 3.74679 9.13159 3.83986 10.3733 3.40862ZM13.176 12.3071L13.4793 12.467C13.4472 13.7333 14.0544 14.9148 15.0941 15.6245L14.9496 15.8988C13.7665 15.1017 13.0902 13.7236 13.176 12.3071ZM14.3612 12.9261C14.53 12.9984 14.7091 13.0354 14.8896 13.0354C15.0239 13.0354 15.159 13.0152 15.2908 12.9743C15.6359 12.8681 15.9189 12.6332 16.0876 12.3132C16.1829 12.1326 16.2313 11.94 16.2403 11.7483C16.3029 11.7573 16.366 11.7623 16.4293 11.7623C16.5639 11.7623 16.6992 11.742 16.8312 11.7009C17.0026 11.6478 17.1586 11.563 17.2929 11.452L15.4983 14.8576C14.867 14.3937 14.4598 13.6965 14.3612 12.9261ZM22.4205 22.9281L17.1558 20.1537L16.7552 20.914L22.0199 23.6885L21.7662 24.17L13.78 19.9615L14.0338 19.4799L15.9365 20.4825L16.3371 19.7222L14.4345 18.7196L16.8887 14.0626L24.8748 18.2712L22.4205 22.9281ZM33.0123 16.6685L33.4074 17.4322L23.6191 22.4975L24.5713 20.6907L33.0123 16.6685ZM27.1659 13.9235L25.941 13.2779L25.5403 14.0382L26.7653 14.6838L25.2755 17.5109L17.2893 13.3023L18.7791 10.4753L24.6677 13.5784L25.0684 12.8181L19.1798 9.71497L19.5398 9.03169L19.6831 9.10714L27.526 13.2403L27.1659 13.9235ZM18.5821 8.37847C18.5221 8.18434 18.4201 8.01101 18.2868 7.8656C18.4426 7.74769 18.5729 7.59722 18.6668 7.41907C19.0143 6.7595 18.7605 5.94017 18.101 5.59255L17.9553 5.51572C18.238 5.39962 18.5665 5.40796 18.8548 5.55947L21.5211 6.96446C21.7843 7.10342 21.9736 7.3376 22.0541 7.62403C22.0809 7.7189 22.0941 7.81421 22.0942 7.90857L20.3577 6.99351L19.74 8.16578L19.1803 7.87084L18.6379 8.90003C18.6535 8.72644 18.6353 8.54983 18.5821 8.37847ZM18.1526 9.82059L17.7771 10.5332C17.7917 10.3708 17.7756 10.2089 17.7333 10.0539C17.8879 10.0005 18.0297 9.92217 18.1526 9.82059ZM27.584 11.773L27.367 12.185L20.5002 8.56633L20.7173 8.15435L27.584 11.773ZM19.3997 4.52572L22.0663 5.9308C23.0027 6.42426 23.4502 7.50432 23.1858 8.48383L22.9023 8.33447C22.9739 8.02622 22.969 7.70232 22.8813 7.39114C22.7364 6.87594 22.396 6.45459 21.922 6.20434L19.255 4.79901C18.5346 4.42036 17.6758 4.53741 17.0879 5.05862L16.797 4.90531C17.4718 4.24608 18.5213 4.06286 19.3997 4.52572ZM16.0795 7.58329L16.4801 6.82301L15.8583 6.49533L16.0295 6.1704C16.0671 6.09907 16.0973 6.02542 16.1242 5.95091L16.3011 5.61541L17.7003 6.35284C17.8167 6.4142 17.9023 6.51715 17.9412 6.64297C17.9801 6.76869 17.9679 6.90207 17.9065 7.01834C17.8451 7.13487 17.7423 7.22038 17.6164 7.25914C17.4911 7.29798 17.3579 7.28552 17.2413 7.22425L17.2412 7.22416L17.0409 7.60426L16.8405 7.98445L17.5204 8.34272C17.7608 8.4694 17.8532 8.76794 17.7265 9.00831C17.6654 9.12424 17.5625 9.20958 17.4367 9.24851C17.3109 9.28752 17.1776 9.27523 17.0613 9.21405L16.5695 8.95486L16.1688 9.71515L16.6606 9.97433C16.9009 10.101 16.9936 10.3993 16.867 10.6393C16.8057 10.7557 16.7027 10.8412 16.5762 10.8804C16.4509 10.9193 16.3179 10.907 16.2014 10.8457L15.5216 10.4874L15.1209 11.2477C15.2374 11.309 15.323 11.4121 15.362 11.5377C15.401 11.6633 15.3887 11.7965 15.3273 11.9127C15.2659 12.0292 15.1631 12.1147 15.0372 12.1535C14.9113 12.1924 14.7779 12.1802 14.6618 12.119L12.3959 10.9249C12.2797 10.8635 12.1941 10.7607 12.1553 10.635C12.1165 10.5094 12.1288 10.376 12.1902 10.2596C12.2516 10.1432 12.3544 10.0576 12.48 10.0188C12.6054 9.98001 12.7386 9.99229 12.8551 10.0536L14.3559 10.8445L14.7565 10.0842L13.2557 9.29328C13.1395 9.23192 13.054 9.12905 13.0151 9.00341C12.9763 8.87777 12.9886 8.7444 13.05 8.62795C13.0885 8.55482 13.1437 8.49526 13.2087 8.45075C13.3395 8.60243 13.4981 8.73039 13.6805 8.82655C13.803 8.89109 13.9364 8.92383 14.0709 8.92383C14.1545 8.92383 14.2384 8.91129 14.3204 8.88585C14.374 8.86935 14.425 8.84778 14.4732 8.82165L15.6365 9.43473L16.0371 8.67444L14.9983 8.12702L15.4575 7.2557L16.0795 7.58329Z" fill="white"/>
<path d="M29.1895 22.7776H28.3301V25.6376H29.1895V22.7776Z" fill="white"/>
<path d="M36.1543 17.3635H35.2949V18.8995H36.1543V17.3635Z" fill="white"/>
<path d="M29.1895 26.8738H28.3301V28.1143H29.1895V26.8738Z" fill="white"/>
<path d="M33.1709 20.1024H32.3115V21.4312H33.1709V20.1024Z" fill="white"/>
<path d="M40.5898 24.2076H39.7305V26.8738H40.5898V24.2076Z" fill="white"/>
<path d="M40.5898 28.1142H39.7305V29.4231H40.5898V28.1142Z" fill="white"/>
<path d="M40.5898 18.8995H39.7305V20.5339H40.5898V18.8995Z" fill="white"/>
</svg>
