<svg width="42" height="42" viewBox="0 0 42 42" fill="none" xmlns="http://www.w3.org/2000/svg">
<g clip-path="url(#clip0_194_169)">
<path d="M31.8294 28.0469L34.7095 29.967C34.9886 30.1531 35.3284 30.2253 35.6591 30.1686C35.9898 30.112 36.2862 29.9309 36.4875 29.6625L40.425 24.4125L38.325 22.8375L35.1322 27.0949L32.228 25.158C31.9445 24.9689 31.5984 24.8975 31.2632 24.959C30.9279 25.0204 30.6297 25.2099 30.4316 25.4873L26.25 31.3411V21H23.625V34.125C23.6258 34.8209 23.9026 35.4882 24.3947 35.9803C24.8868 36.4724 25.5541 36.7492 26.25 36.75H39.375V34.125H27.4882L31.8294 28.0469Z" fill="white"/>
<path d="M21 27.5625H2.625V30.1875H21V27.5625Z" fill="white"/>
<path d="M21 34.125H2.625V36.75H21V34.125Z" fill="white"/>
<path d="M14.4375 21V14.4375H15.75C17.1419 14.4359 18.4763 13.8823 19.4605 12.898C20.4448 11.9138 20.9984 10.5794 21 9.1875V5.25H17.0625C15.7186 5.25216 14.4274 5.77237 13.4573 6.70241C12.7775 5.46845 11.7794 4.43931 10.5667 3.72218C9.35406 3.00506 7.97132 2.62618 6.5625 2.625H2.625V6.5625C2.62729 8.65038 3.45771 10.6521 4.93407 12.1284C6.41042 13.6048 8.41212 14.4352 10.5 14.4375H11.8125V21H2.625V23.625H21V21H14.4375ZM17.0625 7.875H18.375V9.1875C18.3743 9.88348 18.0975 10.5508 17.6054 11.0429C17.1133 11.535 16.446 11.8118 15.75 11.8125H14.4375V10.5C14.4382 9.80401 14.7149 9.13671 15.2071 8.64457C15.6992 8.15243 16.3665 7.87566 17.0625 7.875ZM10.5 11.8125C9.1081 11.8109 7.77367 11.2573 6.78945 10.273C5.80523 9.28883 5.2516 7.9544 5.25 6.5625V5.25H6.5625C7.95441 5.25156 9.28886 5.80519 10.2731 6.78942C11.2573 7.77364 11.8109 9.10809 11.8125 10.5V11.8125H10.5Z" fill="white"/>
</g>
<defs>
<clipPath id="clip0_194_169">
<rect width="42" height="42" fill="white"/>
</clipPath>
</defs>
</svg>
