<svg width="38" height="38" viewBox="0 0 38 38" fill="none" xmlns="http://www.w3.org/2000/svg">
<path d="M35.5061 19.5938C35.2686 19.2375 34.9123 19 34.4373 19C31.8248 19 29.3311 20.1875 27.7873 22.325L26.7186 23.75C25.4123 25.2938 23.3936 26.125 21.3748 26.125H17.8123C17.0998 26.125 16.6248 25.65 16.6248 24.9375C16.6248 24.225 17.0998 23.75 17.8123 23.75H20.0686C21.9686 23.75 23.7498 22.2063 23.7498 20.3062V20.1875C23.7498 19.5938 23.1561 19 22.5623 19V12.9437C27.1936 12.35 30.8748 8.3125 30.8748 3.5625C30.8748 2.85 30.3998 2.375 29.6873 2.375C26.8373 2.375 24.3436 3.68125 22.5623 5.58125V2.375C22.5623 1.6625 22.0873 1.1875 21.3748 1.1875C20.6623 1.1875 20.1873 1.6625 20.1873 2.375V9.14375C18.4061 7.24375 15.9123 5.9375 13.0623 5.9375C12.3498 5.9375 11.8748 6.4125 11.8748 7.125C11.8748 11.9937 15.5561 15.9125 20.1873 16.5062V19H15.3186C11.0436 19 7.59981 20.9 5.69981 23.9875L2.49355 28.975C2.25605 29.3312 2.25605 29.8062 2.49355 30.1625L6.05605 36.1C6.1748 36.3375 6.53105 36.575 6.76855 36.6937C6.8873 36.6937 6.88731 36.6937 7.00605 36.6937C7.24356 36.6937 7.48105 36.575 7.71855 36.4562C12.2311 33.4875 17.4561 31.9438 22.7998 31.9438C26.7186 31.9438 30.2811 29.8063 32.1811 26.3625L35.3873 20.6625C35.6248 20.425 35.6248 19.95 35.5061 19.5938Z" fill="white"/>
</svg>
