<svg width="14" height="12" viewBox="0 0 14 12" fill="none" xmlns="http://www.w3.org/2000/svg">
<g clip-path="url(#clip0_283_484)">
<path d="M4.95313 0.716346V1.43269H8.91564V0.716346C8.91564 0.320789 9.35832 0 9.90626 0C10.4542 0 10.8969 0.320789 10.8969 0.716346V1.43269H12.3828C13.2032 1.43269 13.8688 1.91376 13.8688 2.50721V3.58173H0V2.50721C0 1.91376 0.665267 1.43269 1.48594 1.43269H2.97188V0.716346C2.97188 0.320789 3.41456 0 3.96251 0C4.51045 0 4.95313 0.320789 4.95313 0.716346ZM0 4.29808H13.8688V10.387C13.8688 10.9802 13.2032 11.4615 12.3828 11.4615H1.48594C0.665267 11.4615 0 10.9802 0 10.387V4.29808ZM1.98125 6.80529C1.98125 7.00228 2.20291 7.16346 2.47657 7.16346H3.46719C3.73961 7.16346 3.96251 7.00228 3.96251 6.80529V6.08894C3.96251 5.89195 3.73961 5.73077 3.46719 5.73077H2.47657C2.20291 5.73077 1.98125 5.89195 1.98125 6.08894V6.80529ZM5.94376 6.80529C5.94376 7.00228 6.16665 7.16346 6.43907 7.16346H7.4297C7.70212 7.16346 7.92501 7.00228 7.92501 6.80529V6.08894C7.92501 5.89195 7.70212 5.73077 7.4297 5.73077H6.43907C6.16665 5.73077 5.94376 5.89195 5.94376 6.08894V6.80529ZM10.4016 5.73077C10.1292 5.73077 9.90626 5.89195 9.90626 6.08894V6.80529C9.90626 7.00228 10.1292 7.16346 10.4016 7.16346H11.3922C11.6646 7.16346 11.8875 7.00228 11.8875 6.80529V6.08894C11.8875 5.89195 11.6646 5.73077 11.3922 5.73077H10.4016ZM1.98125 9.67067C1.98125 9.86767 2.20291 10.0288 2.47657 10.0288H3.46719C3.73961 10.0288 3.96251 9.86767 3.96251 9.67067V8.95433C3.96251 8.75733 3.73961 8.59615 3.46719 8.59615H2.47657C2.20291 8.59615 1.98125 8.75733 1.98125 8.95433V9.67067ZM6.43907 8.59615C6.16665 8.59615 5.94376 8.75733 5.94376 8.95433V9.67067C5.94376 9.86767 6.16665 10.0288 6.43907 10.0288H7.4297C7.70212 10.0288 7.92501 9.86767 7.92501 9.67067V8.95433C7.92501 8.75733 7.70212 8.59615 7.4297 8.59615H6.43907ZM9.90626 9.67067C9.90626 9.86767 10.1292 10.0288 10.4016 10.0288H11.3922C11.6646 10.0288 11.8875 9.86767 11.8875 9.67067V8.95433C11.8875 8.75733 11.6646 8.59615 11.3922 8.59615H10.4016C10.1292 8.59615 9.90626 8.75733 9.90626 8.95433V9.67067Z" fill="#ECA30C"/>
</g>
<defs>
<clipPath id="clip0_283_484">
<rect width="13.8688" height="11.4615" fill="white"/>
</clipPath>
</defs>
</svg>
