<svg width="13" height="14" viewBox="0 0 13 14" fill="none" xmlns="http://www.w3.org/2000/svg">
<g clip-path="url(#clip0_26_287)">
<path d="M4.64286 0.875V1.75H8.35714V0.875C8.35714 0.391836 8.7721 0 9.28571 0C9.79933 0 10.2143 0.391836 10.2143 0.875V1.75H11.6071C12.3761 1.75 13 2.33762 13 3.0625V4.375H0V3.0625C0 2.33762 0.623594 1.75 1.39286 1.75H2.78571V0.875C2.78571 0.391836 3.20067 0 3.71429 0C4.2279 0 4.64286 0.391836 4.64286 0.875ZM0 5.25H13V12.6875C13 13.4121 12.3761 14 11.6071 14H1.39286C0.623594 14 0 13.4121 0 12.6875V5.25ZM1.85714 8.3125C1.85714 8.55313 2.06491 8.75 2.32143 8.75H3.25C3.50536 8.75 3.71429 8.55313 3.71429 8.3125V7.4375C3.71429 7.19688 3.50536 7 3.25 7H2.32143C2.06491 7 1.85714 7.19688 1.85714 7.4375V8.3125ZM5.57143 8.3125C5.57143 8.55313 5.78036 8.75 6.03571 8.75H6.96429C7.21964 8.75 7.42857 8.55313 7.42857 8.3125V7.4375C7.42857 7.19688 7.21964 7 6.96429 7H6.03571C5.78036 7 5.57143 7.19688 5.57143 7.4375V8.3125ZM9.75 7C9.49464 7 9.28571 7.19688 9.28571 7.4375V8.3125C9.28571 8.55313 9.49464 8.75 9.75 8.75H10.6786C10.9339 8.75 11.1429 8.55313 11.1429 8.3125V7.4375C11.1429 7.19688 10.9339 7 10.6786 7H9.75ZM1.85714 11.8125C1.85714 12.0531 2.06491 12.25 2.32143 12.25H3.25C3.50536 12.25 3.71429 12.0531 3.71429 11.8125V10.9375C3.71429 10.6969 3.50536 10.5 3.25 10.5H2.32143C2.06491 10.5 1.85714 10.6969 1.85714 10.9375V11.8125ZM6.03571 10.5C5.78036 10.5 5.57143 10.6969 5.57143 10.9375V11.8125C5.57143 12.0531 5.78036 12.25 6.03571 12.25H6.96429C7.21964 12.25 7.42857 12.0531 7.42857 11.8125V10.9375C7.42857 10.6969 7.21964 10.5 6.96429 10.5H6.03571ZM9.28571 11.8125C9.28571 12.0531 9.49464 12.25 9.75 12.25H10.6786C10.9339 12.25 11.1429 12.0531 11.1429 11.8125V10.9375C11.1429 10.6969 10.9339 10.5 10.6786 10.5H9.75C9.49464 10.5 9.28571 10.6969 9.28571 10.9375V11.8125Z" fill="#ECA30C"/>
</g>
<defs>
<clipPath id="clip0_26_287">
<rect width="13" height="14" fill="white"/>
</clipPath>
</defs>
</svg>
