<svg width="11" height="10" viewBox="0 0 11 10" fill="none" xmlns="http://www.w3.org/2000/svg">
<g clip-path="url(#clip0_26_273)">
<path d="M3.64376 0.844137V1.41667H6.55877V0.844137C6.55877 0.527993 6.88443 0.271606 7.28752 0.271606C7.69061 0.271606 8.01628 0.527993 8.01628 0.844137V1.41667H9.1094C9.7129 1.41667 10.2025 1.80116 10.2025 2.27546V3.13426H0V2.27546C0 1.80116 0.489403 1.41667 1.09313 1.41667H2.18626V0.844137C2.18626 0.527993 2.51192 0.271606 2.91501 0.271606C3.3181 0.271606 3.64376 0.527993 3.64376 0.844137ZM0 3.70679H10.2025V8.5733C10.2025 9.04743 9.7129 9.4321 9.1094 9.4321H1.09313C0.489403 9.4321 0 9.04743 0 8.5733V3.70679ZM1.4575 5.71065C1.4575 5.8681 1.62056 5.99691 1.82188 5.99691H2.55063C2.75104 5.99691 2.91501 5.8681 2.91501 5.71065V5.13812C2.91501 4.98067 2.75104 4.85185 2.55063 4.85185H1.82188C1.62056 4.85185 1.4575 4.98067 1.4575 5.13812V5.71065ZM4.37251 5.71065C4.37251 5.8681 4.53648 5.99691 4.73689 5.99691H5.46564C5.66605 5.99691 5.83002 5.8681 5.83002 5.71065V5.13812C5.83002 4.98067 5.66605 4.85185 5.46564 4.85185H4.73689C4.53648 4.85185 4.37251 4.98067 4.37251 5.13812V5.71065ZM7.6519 4.85185C7.45149 4.85185 7.28752 4.98067 7.28752 5.13812V5.71065C7.28752 5.8681 7.45149 5.99691 7.6519 5.99691H8.38065C8.58106 5.99691 8.74503 5.8681 8.74503 5.71065V5.13812C8.74503 4.98067 8.58106 4.85185 8.38065 4.85185H7.6519ZM1.4575 8.00077C1.4575 8.15822 1.62056 8.28704 1.82188 8.28704H2.55063C2.75104 8.28704 2.91501 8.15822 2.91501 8.00077V7.42824C2.91501 7.2708 2.75104 7.14198 2.55063 7.14198H1.82188C1.62056 7.14198 1.4575 7.2708 1.4575 7.42824V8.00077ZM4.73689 7.14198C4.53648 7.14198 4.37251 7.2708 4.37251 7.42824V8.00077C4.37251 8.15822 4.53648 8.28704 4.73689 8.28704H5.46564C5.66605 8.28704 5.83002 8.15822 5.83002 8.00077V7.42824C5.83002 7.2708 5.66605 7.14198 5.46564 7.14198H4.73689ZM7.28752 8.00077C7.28752 8.15822 7.45149 8.28704 7.6519 8.28704H8.38065C8.58106 8.28704 8.74503 8.15822 8.74503 8.00077V7.42824C8.74503 7.2708 8.58106 7.14198 8.38065 7.14198H7.6519C7.45149 7.14198 7.28752 7.2708 7.28752 7.42824V8.00077Z" fill="#ECA30C"/>
</g>
<defs>
<clipPath id="clip0_26_273">
<rect width="10.2025" height="9.16049" fill="white" transform="translate(0 0.271606)"/>
</clipPath>
</defs>
</svg>
