<svg width="10" height="10" viewBox="0 0 10 10" fill="none" xmlns="http://www.w3.org/2000/svg">
<g clip-path="url(#clip0_78_1093)">
<path d="M5.22373 4.60108L0.992821 0.177914C0.773824 -0.0518987 0.408667 -0.0603123 0.178131 0.159884C0.059377 0.273348 0 0.425034 0 0.57672C0 0.720208 0.0533431 0.863745 0.160005 0.975526L4.00975 5.00013L0.161063 9.02424C-0.0582952 9.25487 -0.0515401 9.61993 0.179092 9.84013C0.409725 10.0602 0.774785 10.052 0.994985 9.8221L5.22589 5.39893C5.43768 5.17561 5.43768 4.82464 5.22373 4.60108ZM9.83927 4.60108L5.60836 0.177914C5.3896 -0.0518987 5.0242 -0.0603123 4.79343 0.159884C4.67563 0.273348 4.61554 0.425034 4.61554 0.57672C4.61554 0.720208 4.66888 0.863745 4.77554 0.975526L8.62528 5.00013L4.7766 9.02424C4.55724 9.25487 4.564 9.61993 4.79463 9.84013C5.02526 10.0602 5.39032 10.052 5.61052 9.8221L9.84143 5.39893C10.0532 5.17561 10.0532 4.82464 9.83927 4.60108Z" fill="#ECA30C"/>
</g>
<defs>
<clipPath id="clip0_78_1093">
<rect width="10" height="10" fill="white"/>
</clipPath>
</defs>
</svg>
