<svg width="23" height="23" viewBox="0 0 23 23" fill="none" xmlns="http://www.w3.org/2000/svg">
<g clip-path="url(#clip0_72_1021)">
<path d="M11.5169 18.5778H21.2572C21.3752 18.6278 21.4788 18.7064 21.5587 18.8066C21.6386 18.9068 21.6923 19.0253 21.7148 19.1515V20.3354C21.7148 20.5747 21.3789 20.6322 21.2572 20.6322H11.5169C11.3951 20.6322 11.4424 20.5747 11.4424 20.3354V19.1515C11.4424 18.9126 11.3951 18.5778 11.5169 18.5778Z" stroke="white" stroke-linecap="round" stroke-linejoin="round"/>
<path d="M10.161 20.6322H22.6133C22.7673 20.6322 22.7422 20.9584 22.7422 21.1926V22.3518C22.7422 22.586 22.7689 22.6867 22.6133 22.6867H10.161C10.0069 22.6867 9.90161 22.584 9.90161 22.3518V21.1926C9.90161 20.9609 10.0049 20.6322 10.161 20.6322Z" stroke="white" stroke-linecap="round" stroke-linejoin="round"/>
<path d="M5.3571 7.34019L12.3398 0.357494C12.4271 0.270178 12.648 0.346708 12.8277 0.529044L13.7302 1.43148C13.912 1.6133 13.987 1.8321 13.9017 1.91942L6.91643 8.90468C6.82911 8.992 6.61085 8.91495 6.42851 8.73313L5.52607 7.8307C5.34682 7.64579 5.26978 7.4275 5.3571 7.34019Z" stroke="white" stroke-linecap="round" stroke-linejoin="round"/>
<path d="M12.5225 14.5057L19.5051 7.52302C19.5925 7.43571 19.8133 7.51224 19.9931 7.69457L20.8955 8.59701C21.0774 8.77883 21.1523 8.99763 21.0671 9.08494L14.0818 16.0702C13.9945 16.1575 13.7737 16.0805 13.5939 15.8981L12.6914 14.9962C12.5117 14.8113 12.4352 14.592 12.5225 14.5057Z" stroke="white" stroke-linecap="round" stroke-linejoin="round"/>
<path d="M13.3968 2.42427L7.42383 8.39722L13.0274 14.0008L19.0004 8.02786L13.3968 2.42427Z" stroke="white" stroke-linecap="round" stroke-linejoin="round"/>
<path d="M1.32512 17.061L8.70614 9.67997L10.631 11.6049L3.25 18.9859C3.1236 19.1123 2.97352 19.2125 2.80836 19.2809C2.64319 19.3493 2.46617 19.3845 2.28741 19.3844C2.10865 19.3843 1.93165 19.349 1.76654 19.2805C1.60142 19.212 1.45142 19.1116 1.32512 18.9851C1.06996 18.73 0.92661 18.3839 0.92661 18.0231C0.92661 17.6622 1.06996 17.3162 1.32512 17.061Z" stroke="white" stroke-linecap="round" stroke-linejoin="round"/>
</g>
<defs>
<clipPath id="clip0_72_1021">
<rect width="23" height="23" fill="white"/>
</clipPath>
</defs>
</svg>
