<svg width="38" height="38" viewBox="0 0 38 38" fill="none" xmlns="http://www.w3.org/2000/svg">
<path d="M18.4927 2.53779L5.13532 6.79856C4.79725 6.9064 4.50223 7.11893 4.29288 7.40545C4.08353 7.69197 3.9707 8.03763 3.9707 8.39249V18.4234C3.9707 21.1878 4.71463 23.9011 6.12444 26.2789C7.53426 28.6567 9.558 30.6112 11.9834 31.9375L18.1993 35.3366C18.4448 35.4708 18.7202 35.5412 19 35.5412C19.2798 35.5412 19.5551 35.4708 19.8006 35.3366L26.0169 31.9375C28.4422 30.6113 30.4658 28.6569 31.8756 26.2793C33.2854 23.9017 34.0293 21.1885 34.0293 18.4243V8.38788C34.0293 8.03436 33.9169 7.68999 33.7083 7.40455C33.4998 7.11911 33.2059 6.90737 32.8691 6.79993L19.5073 2.53779C19.1773 2.43251 18.8227 2.43251 18.4927 2.53779ZM24.5261 19.9117C24.543 19.9173 24.5606 19.9148 24.5773 19.9217L26.2524 20.6156L26.3365 20.4123C26.3733 20.3228 26.4273 20.2416 26.4955 20.1731C26.5638 20.1046 26.6448 20.0502 26.7341 20.0131C26.8233 19.9759 26.9191 19.9568 27.0157 19.9567C27.1124 19.9566 27.2081 19.9756 27.2975 20.0126C27.3868 20.0496 27.4679 20.1038 27.5363 20.1722C27.6046 20.2406 27.6588 20.3218 27.6957 20.4112C27.7325 20.5005 27.7514 20.5963 27.7513 20.693C27.7511 20.7896 27.7319 20.8853 27.6947 20.9745L27.3297 21.8557C27.3294 21.8562 27.3297 21.8566 27.3294 21.8571L27.3284 21.8589L26.9634 22.7397C26.8889 22.9198 26.7458 23.0629 26.5657 23.1376C26.3857 23.2122 26.1833 23.2122 26.0032 23.1376C25.8231 23.0631 25.68 22.92 25.6054 22.74C25.5308 22.5599 25.5307 22.3575 25.6053 22.1774L25.6898 21.9736L24.015 21.2798C23.998 21.2728 23.9876 21.2586 23.9716 21.2506C23.466 22.138 22.7312 22.8731 21.8441 23.3791C21.8519 23.395 21.8659 23.4054 21.8728 23.422L22.5665 25.0968L22.7703 25.0124C22.8595 24.9754 22.9551 24.9565 23.0516 24.9565C23.1481 24.9565 23.2437 24.9755 23.3329 25.0125C23.422 25.0494 23.503 25.1036 23.5713 25.1718C23.6395 25.2401 23.6936 25.3211 23.7306 25.4103C23.7675 25.4995 23.7865 25.595 23.7865 25.6915C23.7864 25.7881 23.7674 25.8836 23.7305 25.9728C23.6935 26.062 23.6394 26.143 23.5711 26.2112C23.5029 26.2794 23.4218 26.3336 23.3326 26.3705L22.4514 26.7356C22.4507 26.7358 22.4507 26.7363 22.4501 26.7365C22.4495 26.7365 22.449 26.7366 22.4484 26.7368L21.5675 27.1018C21.3874 27.1759 21.1853 27.1757 21.0055 27.101C20.8257 27.0263 20.6829 26.8833 20.6084 26.7034C20.5339 26.5235 20.5338 26.3214 20.6082 26.1414C20.6826 25.9615 20.8254 25.8184 21.0052 25.7436L21.2084 25.6594L20.5146 23.9844C20.5078 23.9679 20.5104 23.9506 20.5048 23.934C19.5197 24.2034 18.4803 24.2031 17.4954 23.9331C17.4898 23.9501 17.4921 23.9676 17.4853 23.9844L16.7915 25.6592L16.9954 25.7436C17.0853 25.78 17.1672 25.8338 17.2362 25.902C17.3053 25.9702 17.3601 26.0514 17.3976 26.1408C17.4351 26.2303 17.4546 26.3263 17.4548 26.4233C17.455 26.5204 17.436 26.6165 17.3989 26.7061C17.3618 26.7958 17.3073 26.8772 17.2386 26.9456C17.1698 27.0141 17.0882 27.0683 16.9984 27.1051C16.9086 27.1419 16.8125 27.1605 16.7154 27.1599C16.6184 27.1594 16.5225 27.1396 16.4331 27.1017L15.5522 26.7369C15.5512 26.7366 15.5505 26.7368 15.5499 26.7364C15.5492 26.7361 15.5489 26.7355 15.5479 26.7353L14.6673 26.3705C14.4872 26.2959 14.3441 26.1529 14.2695 25.9728C14.1949 25.7927 14.1948 25.5904 14.2694 25.4103C14.344 25.2302 14.487 25.0871 14.6671 25.0125C14.8472 24.9378 15.0495 24.9378 15.2296 25.0124L15.4334 25.0968L16.1272 23.422C16.1344 23.4052 16.1484 23.3946 16.1565 23.3785C15.2691 22.8729 14.534 22.1381 14.0281 21.2509C14.0121 21.2588 14.0017 21.2729 13.985 21.2798L12.3102 21.9737L12.3947 22.1774C12.4316 22.2666 12.4506 22.3622 12.4506 22.4587C12.4506 22.5552 12.4316 22.6508 12.3946 22.7399C12.3577 22.8291 12.3035 22.9101 12.2353 22.9783C12.167 23.0466 12.086 23.1007 11.9968 23.1376C11.9076 23.1745 11.812 23.1935 11.7155 23.1935C11.619 23.1935 11.5234 23.1745 11.4343 23.1375C11.3451 23.1006 11.2641 23.0464 11.1959 22.9782C11.1276 22.9099 11.0735 22.8289 11.0366 22.7397L10.3053 20.9745C10.2681 20.8853 10.2489 20.7896 10.2487 20.693C10.2485 20.5963 10.2675 20.5005 10.3043 20.4112C10.3412 20.3218 10.3954 20.2406 10.4637 20.1722C10.5321 20.1038 10.6132 20.0496 10.7025 20.0126C10.7919 19.9756 10.8876 19.9566 10.9843 19.9567C11.0809 19.9568 11.1767 19.9759 11.2659 20.0131C11.3552 20.0502 11.4362 20.1046 11.5045 20.1731C11.5727 20.2416 11.6267 20.3228 11.6635 20.4123L11.7476 20.6158L13.4227 19.9217C13.4394 19.9149 13.4566 19.9175 13.4736 19.9119C13.204 18.9269 13.2043 17.8875 13.4743 16.9026C13.4573 16.897 13.4397 16.8993 13.4227 16.8924L11.7479 16.1988L11.6634 16.4025C11.6266 16.4918 11.5726 16.573 11.5043 16.6414C11.4361 16.7098 11.3551 16.7641 11.2658 16.8012C11.1766 16.8383 11.0809 16.8574 10.9843 16.8574C10.8877 16.8575 10.792 16.8385 10.7028 16.8015C10.6135 16.7646 10.5324 16.7104 10.4641 16.642C10.3958 16.5737 10.3416 16.4925 10.3047 16.4033C10.2678 16.314 10.2489 16.2183 10.249 16.1217C10.2491 16.025 10.2682 15.9294 10.3053 15.8402L11.0366 14.0744C11.0735 13.9852 11.1276 13.9042 11.1958 13.8359C11.2641 13.7677 11.3451 13.7135 11.4343 13.6766C11.5234 13.6396 11.619 13.6206 11.7155 13.6206C11.812 13.6206 11.9076 13.6396 11.9968 13.6765C12.0859 13.7134 12.167 13.7675 12.2352 13.8358C12.3035 13.904 12.3576 13.985 12.3946 14.0742C12.4315 14.1633 12.4506 14.2589 12.4506 14.3554C12.4506 14.4519 12.4316 14.5475 12.3947 14.6367L12.3102 14.8407L13.985 15.5343C14.002 15.5413 14.0127 15.5556 14.0287 15.5637C14.5339 14.6771 15.2678 13.9425 16.154 13.4366C16.1461 13.4208 16.1341 13.4086 16.1272 13.3921L15.4332 11.7174L15.2296 11.8017C15.1404 11.8388 15.0448 11.858 14.9482 11.8581C14.8516 11.8582 14.7559 11.8392 14.6666 11.8023C14.5773 11.7654 14.4962 11.7113 14.4278 11.643C14.3595 11.5747 14.3053 11.4935 14.2683 11.4043C14.2314 11.315 14.2124 11.2193 14.2124 11.1227C14.2125 11.0261 14.2316 10.9304 14.2687 10.8412C14.3057 10.752 14.36 10.6709 14.4284 10.6027C14.4968 10.5345 14.578 10.4804 14.6674 10.4436L16.4332 9.71237C16.6132 9.63818 16.8153 9.63846 16.9951 9.71315C17.1749 9.78784 17.3178 9.93084 17.3923 10.1107C17.4667 10.2906 17.4668 10.4928 17.3924 10.6727C17.318 10.8526 17.1752 10.9957 16.9955 11.0705L16.7913 11.155L17.4854 12.8298C17.4922 12.8464 17.4896 12.8639 17.4951 12.8807C18.4802 12.6112 19.5196 12.6114 20.5046 12.8814C20.5101 12.8643 20.5076 12.8467 20.5147 12.8298L21.2088 11.1548L21.0052 11.0705C20.9159 11.0337 20.8347 10.9796 20.7663 10.9114C20.6979 10.8432 20.6436 10.7621 20.6065 10.6729C20.5695 10.5837 20.5504 10.488 20.5503 10.3914C20.5502 10.2948 20.5692 10.1991 20.6062 10.1098C20.6432 10.0205 20.6974 9.93944 20.7657 9.87113C20.834 9.80283 20.9152 9.74867 21.0045 9.71176C21.0937 9.67484 21.1894 9.6559 21.286 9.656C21.3827 9.6561 21.4783 9.67526 21.5675 9.71236L23.3327 10.4436C23.422 10.4804 23.5032 10.5345 23.5716 10.6027C23.64 10.6709 23.6943 10.752 23.7314 10.8412C23.7684 10.9304 23.7876 11.0261 23.7876 11.1227C23.7877 11.2193 23.7687 11.315 23.7317 11.4043C23.6947 11.4935 23.6405 11.5746 23.5722 11.6429C23.5039 11.7112 23.4227 11.7654 23.3335 11.8023C23.2442 11.8392 23.1485 11.8582 23.0519 11.8581C22.9552 11.858 22.8596 11.8388 22.7704 11.8017L22.5669 11.7174L21.8728 13.392C21.8659 13.4088 21.8535 13.4211 21.8454 13.4371C22.7319 13.9426 23.4663 14.6768 23.9719 15.5632C23.9879 15.5553 23.9983 15.5411 24.015 15.5343L25.6898 14.8408L25.6053 14.6367C25.5307 14.4566 25.5308 14.2542 25.6054 14.0742C25.68 13.8941 25.8231 13.751 26.0032 13.6765C26.1833 13.6019 26.3857 13.6019 26.5657 13.6766C26.7458 13.7512 26.8889 13.8943 26.9634 14.0744L27.3287 14.9569C27.329 14.9571 27.3294 14.9573 27.3294 14.9576V14.9584L27.6947 15.8402C27.7318 15.9294 27.7509 16.0251 27.751 16.1217C27.7511 16.2183 27.7322 16.314 27.6953 16.4033C27.6583 16.4926 27.6042 16.5737 27.5359 16.642C27.4676 16.7104 27.3865 16.7646 27.2972 16.8015C27.2079 16.8385 27.1123 16.8575 27.0156 16.8574C26.919 16.8574 26.8234 16.8383 26.7341 16.8012C26.6449 16.7641 26.5639 16.7098 26.4956 16.6414C26.4274 16.573 26.3734 16.4918 26.3365 16.4025L26.2524 16.199L24.5773 16.8924C24.5606 16.8992 24.5434 16.8969 24.5267 16.9025C24.7961 17.8875 24.7959 18.9268 24.5261 19.9117Z" fill="white"/>
</svg>
