<svg width="54" height="55" viewBox="0 0 54 55" fill="none" xmlns="http://www.w3.org/2000/svg">
<circle cx="26.9672" cy="27.3115" r="26.9672" fill="#ECA30C"/>
<g clip-path="url(#clip0_173_1929)">
<path d="M26.967 31.6455C26.2208 31.6455 25.4745 31.4007 24.838 30.9046L15.4097 23.5734V33.8125C15.4097 35.0089 16.3799 35.9795 17.5767 35.9795H36.3574C37.5542 35.9795 38.5244 35.0093 38.5244 33.8125V23.5734L29.0979 30.9096C28.4614 31.4017 27.712 31.6455 26.967 31.6455ZM16.1451 22.3138L25.7251 29.7674C26.456 30.3362 27.4799 30.3362 28.2108 29.7674L37.7908 22.3138C38.2129 21.9526 38.5244 21.3973 38.5244 20.8104C38.5244 19.6136 37.5538 18.6434 36.3574 18.6434H17.5767C16.3799 18.6434 15.4097 19.6136 15.4097 20.8104C15.4097 21.3973 15.681 21.9526 16.1451 22.3138Z" fill="white"/>
</g>
<defs>
<clipPath id="clip0_173_1929">
<rect width="23.1148" height="23.1148" fill="white" transform="translate(15.4097 15.7541)"/>
</clipPath>
</defs>
</svg>
