<svg width="16" height="16" viewBox="0 0 16 16" fill="none" xmlns="http://www.w3.org/2000/svg">
<g clip-path="url(#clip0_1_60)">
<path d="M7.95886 10.8125C7.47459 10.8125 6.99031 10.6537 6.57722 10.3317L0.458862 5.57422V12.2188C0.458862 12.9951 1.08845 13.625 1.86511 13.625H14.0526C14.8293 13.625 15.4589 12.9954 15.4589 12.2188V5.57422L9.34167 10.335C8.92859 10.6543 8.44226 10.8125 7.95886 10.8125ZM0.936108 4.75684L7.15291 9.59375C7.62722 9.96289 8.29167 9.96289 8.76599 9.59375L14.9828 4.75684C15.2567 4.52246 15.4589 4.16211 15.4589 3.78125C15.4589 3.00459 14.829 2.375 14.0526 2.375H1.86511C1.08845 2.375 0.458862 3.00459 0.458862 3.78125C0.458862 4.16211 0.634937 4.52246 0.936108 4.75684Z" fill="white"/>
</g>
<defs>
<clipPath id="clip0_1_60">
<rect width="15" height="15" fill="white" transform="translate(0.458862 0.5)"/>
</clipPath>
</defs>
</svg>
