<svg width="39" height="39" viewBox="0 0 39 39" fill="none" xmlns="http://www.w3.org/2000/svg">
<path d="M9.67803 33.0207C8.87233 33.0207 8.09963 32.7006 7.52992 32.1309C6.9602 31.5612 6.64014 30.7885 6.64014 29.9828V17.16C6.64014 16.3543 6.9602 15.5816 7.52992 15.0119C8.09963 14.4422 8.87233 14.1221 9.67803 14.1221C10.4837 14.1221 11.2564 14.4422 11.8261 15.0119C12.3959 15.5816 12.7159 16.3543 12.7159 17.16V29.9848C12.7159 30.7905 12.3959 31.5632 11.8261 32.133C11.2564 32.7027 10.4837 33.0207 9.67803 33.0207ZM30.0832 16.1275H29.4346V11.7L28.7449 11.0103L23.6072 5.87258L22.9175 5.18085H10.9199C10.6615 5.18193 10.414 5.28535 10.2316 5.46847C10.0493 5.65158 9.94692 5.89948 9.94693 6.1579V12.1803C10.5228 12.2104 11.089 12.341 11.6198 12.5662C11.8268 12.6539 12.0278 12.7554 12.2212 12.87V7.45722H21.1543V12.129C21.1554 12.4716 21.292 12.7999 21.5342 13.0422C21.7765 13.2845 22.1048 13.4211 22.4475 13.4222H27.1603V16.1296H14.5592C14.6301 16.4678 14.6659 16.8124 14.6659 17.158V29.9828C14.6665 31.0621 14.3164 32.1124 13.6683 32.9755H30.0832C30.6863 32.9739 31.2641 32.7335 31.6904 32.3069C32.1166 31.8803 32.3565 31.3022 32.3576 30.6992V18.4039C32.3554 17.8014 32.1151 17.2242 31.689 16.7981C31.263 16.3721 30.6858 16.1297 30.0832 16.1275ZM19.0175 22.3696C18.8895 22.3699 18.7626 22.3449 18.6442 22.2962C18.5258 22.2474 18.4182 22.1758 18.3275 22.0855C18.2367 21.9951 18.1647 21.8878 18.1155 21.7696C18.0662 21.6514 18.0407 21.5247 18.0405 21.3966C18.0402 21.2686 18.0651 21.1418 18.1139 21.0234C18.1626 20.905 18.2342 20.7973 18.3246 20.7066C18.4149 20.6159 18.5223 20.5438 18.6404 20.4946C18.7586 20.4453 18.8854 20.4199 19.0134 20.4196H19.0175C19.2761 20.4196 19.5241 20.5223 19.7069 20.7052C19.8898 20.888 19.9925 21.136 19.9925 21.3946C19.9925 21.6532 19.8898 21.9012 19.7069 22.084C19.5241 22.2669 19.2761 22.3696 19.0175 22.3696ZM19.0175 25.5368C18.7589 25.5373 18.5107 25.4351 18.3275 25.2527C18.1442 25.0702 18.041 24.8224 18.0405 24.5638C18.0399 24.3053 18.1421 24.0571 18.3246 23.8738C18.507 23.6906 18.7548 23.5873 19.0134 23.5868H19.0175C19.2761 23.5868 19.5241 23.6895 19.7069 23.8724C19.8898 24.0552 19.9925 24.3032 19.9925 24.5618C19.9925 24.8204 19.8898 25.0684 19.7069 25.2512C19.5241 25.4341 19.2761 25.5368 19.0175 25.5368ZM19.0175 28.704C18.8895 28.7043 18.7626 28.6793 18.6442 28.6306C18.5258 28.5818 18.4182 28.5102 18.3275 28.4199C18.2367 28.3295 18.1647 28.2222 18.1155 28.104C18.0662 27.9858 18.0407 27.8591 18.0405 27.7311C18.0402 27.603 18.0651 27.4762 18.1139 27.3578C18.1626 27.2394 18.2342 27.1318 18.3246 27.041C18.4149 26.9503 18.5223 26.8783 18.6404 26.829C18.7586 26.7798 18.8854 26.7543 19.0134 26.754H19.0175C19.2761 26.754 19.5241 26.8567 19.7069 27.0396C19.8898 27.2224 19.9925 27.4704 19.9925 27.729C19.9925 27.9876 19.8898 28.2356 19.7069 28.4184C19.5241 28.6013 19.2761 28.704 19.0175 28.704ZM22.9586 22.3696H22.9545C22.6959 22.3696 22.4479 22.2669 22.265 22.084C22.0822 21.9012 21.9795 21.6532 21.9795 21.3946C21.9795 21.136 22.0822 20.888 22.265 20.7052C22.4479 20.5223 22.6959 20.4196 22.9545 20.4196H22.9606C23.2192 20.4196 23.4672 20.5223 23.65 20.7052C23.8329 20.888 23.9356 21.136 23.9356 21.3946C23.9356 21.6532 23.8329 21.9012 23.65 22.084C23.4672 22.2669 23.2171 22.3696 22.9586 22.3696ZM22.9586 25.5368H22.9545C22.6959 25.5368 22.4479 25.4341 22.265 25.2512C22.0822 25.0684 21.9795 24.8204 21.9795 24.5618C21.9795 24.3032 22.0822 24.0552 22.265 23.8724C22.4479 23.6895 22.6959 23.5868 22.9545 23.5868H22.9606C23.2192 23.5868 23.4672 23.6895 23.65 23.8724C23.8329 24.0552 23.9356 24.3032 23.9356 24.5618C23.9356 24.8204 23.8329 25.0684 23.65 25.2512C23.4672 25.4341 23.2171 25.5368 22.9586 25.5368ZM22.9586 28.704H22.9545C22.6959 28.704 22.4479 28.6013 22.265 28.4184C22.0822 28.2356 21.9795 27.9876 21.9795 27.729C21.9795 27.4704 22.0822 27.2224 22.265 27.0396C22.4479 26.8567 22.6959 26.754 22.9545 26.754H22.9606C23.2192 26.754 23.4672 26.8567 23.65 27.0396C23.8329 27.2224 23.9356 27.4704 23.9356 27.729C23.9356 27.9876 23.8329 28.2356 23.65 28.4184C23.4672 28.6013 23.2171 28.704 22.9586 28.704ZM26.8996 22.3696C26.641 22.3699 26.3929 22.2674 26.2099 22.0847C26.0268 21.9021 25.9239 21.6542 25.9236 21.3956C25.9233 21.137 26.0258 20.8889 26.2084 20.7059C26.3911 20.5228 26.639 20.4199 26.8976 20.4196C27.0256 20.4196 27.1544 20.4448 27.2727 20.4938C27.391 20.5428 27.4985 20.6146 27.589 20.7052C27.6796 20.7957 27.7514 20.9032 27.8004 21.0215C27.8494 21.1398 27.8746 21.2665 27.8746 21.3946C27.8746 21.5226 27.8494 21.6494 27.8004 21.7677C27.7514 21.886 27.6796 21.9935 27.589 22.084C27.4985 22.1746 27.391 22.2464 27.2727 22.2954C27.1544 22.3444 27.0276 22.3696 26.8996 22.3696ZM26.8996 25.5368C26.641 25.5371 26.3929 25.4346 26.2099 25.2519C26.0268 25.0693 25.9239 24.8214 25.9236 24.5628C25.9233 24.3042 26.0258 24.0561 26.2084 23.8731C26.3911 23.6901 26.639 23.5871 26.8976 23.5868C27.0256 23.5868 27.1544 23.612 27.2727 23.661C27.391 23.71 27.4985 23.7818 27.589 23.8724C27.6796 23.9629 27.7514 24.0704 27.8004 24.1887C27.8494 24.307 27.8746 24.4338 27.8746 24.5618C27.8746 24.6898 27.8494 24.8166 27.8004 24.9349C27.7514 25.0532 27.6796 25.1607 27.589 25.2512C27.4985 25.3418 27.391 25.4136 27.2727 25.4626C27.1544 25.5116 27.0276 25.5368 26.8996 25.5368ZM26.8996 28.704C26.641 28.7043 26.3929 28.6018 26.2099 28.4192C26.0268 28.2365 25.9239 27.9886 25.9236 27.73C25.9233 27.4714 26.0258 27.2233 26.2084 27.0403C26.3911 26.8573 26.639 26.7543 26.8976 26.754C27.1561 26.754 27.4062 26.8567 27.589 27.0396C27.7719 27.2224 27.8746 27.4704 27.8746 27.729C27.8746 27.9876 27.7719 28.2356 27.589 28.4184C27.4062 28.6013 27.1582 28.704 26.8996 28.704Z" fill="white"/>
</svg>
