<svg width="31" height="39" viewBox="0 0 31 39" fill="none" xmlns="http://www.w3.org/2000/svg">
<path d="M25 25.3333V30.7778C25 32.9558 25 34.0448 24.5822 34.8767C24.2147 35.6084 23.6282 36.2034 22.907 36.5761C22.087 37 21.0135 37 18.8667 37H8.13333C5.98647 37 4.91303 37 4.09304 36.5761C3.37174 36.2034 2.78532 35.6084 2.41781 34.8767C2 34.0448 2 32.9558 2 30.7778V7C2 5.96715 2 5.45071 2.0961 5.02353C2.42377 3.56716 3.54478 2.42992 4.98034 2.09749C5.40141 2 5.91048 2 6.92857 2H13.5M11.5833 31.1667H15.4167" stroke="white" stroke-width="3" stroke-linecap="round" stroke-linejoin="round"/>
<path d="M30.2084 20.7369V21.4604H9.79199V20.7383C9.79199 20.5525 9.86569 20.3743 9.99693 20.2428C10.1282 20.1113 10.3062 20.0373 10.492 20.0369H11.0977C11.0956 20.0133 11.0946 19.9897 11.0947 19.9661V19.3133C11.0951 19.1278 11.169 18.9499 11.3002 18.8187C11.4314 18.6875 11.6092 18.6137 11.7947 18.6133H12.3989V13.283H11.9465C11.73 13.283 11.5223 13.1969 11.3692 13.0438C11.2161 12.8907 11.1301 12.6831 11.1301 12.4665C11.1301 12.25 11.2161 12.0424 11.3692 11.8892C11.5223 11.7361 11.73 11.6501 11.9465 11.6501H28.1025C28.319 11.6501 28.5267 11.7361 28.6798 11.8892C28.8329 12.0424 28.9189 12.25 28.9189 12.4665C28.9189 12.6831 28.8329 12.8907 28.6798 13.0438C28.5267 13.1969 28.319 13.283 28.1025 13.283H27.6722V18.6133H28.2057C28.3912 18.6137 28.569 18.6875 28.7002 18.8187C28.8314 18.9499 28.9053 19.1278 28.9057 19.3133V19.9661C28.9058 19.9898 28.9043 20.0134 28.9013 20.0369H29.5084C29.6939 20.0372 29.8718 20.1111 30.003 20.2423C30.1342 20.3735 30.208 20.5513 30.2084 20.7369ZM27.6737 10.3577C27.6737 8.33234 26.8691 6.38993 25.437 4.95779C24.0048 3.52564 22.0624 2.72107 20.037 2.72107C18.0117 2.72107 16.0693 3.52564 14.6371 4.95779C13.205 6.38993 12.4004 8.33234 12.4004 10.3577H27.6737ZM14.1335 18.6133H15.7678V14.1009C15.7678 13.8841 15.6817 13.6763 15.5284 13.523C15.3752 13.3698 15.1673 13.2837 14.9506 13.2837C14.7339 13.2837 14.5261 13.3698 14.3728 13.523C14.2196 13.6763 14.1335 13.8841 14.1335 14.1009V18.6133ZM17.5141 14.1141V18.6133H19.1484V14.1141C19.1484 13.8974 19.0623 13.6896 18.9091 13.5363C18.7558 13.3831 18.548 13.297 18.3313 13.297C18.1145 13.297 17.9067 13.3831 17.7534 13.5363C17.6002 13.6896 17.5141 13.8974 17.5141 14.1141ZM20.8947 14.1259V18.6133H22.529V14.1259C22.529 13.9092 22.443 13.7013 22.2897 13.5481C22.1365 13.3948 21.9286 13.3088 21.7119 13.3088C21.4952 13.3088 21.2873 13.3948 21.1341 13.5481C20.9808 13.7013 20.8947 13.9092 20.8947 14.1259ZM24.2754 14.1377V18.6133H25.9097V14.1377C25.9097 13.921 25.8236 13.7131 25.6703 13.5599C25.5171 13.4066 25.3092 13.3205 25.0925 13.3205C24.8758 13.3205 24.6679 13.4066 24.5147 13.5599C24.3615 13.7131 24.2754 13.921 24.2754 14.1377Z" fill="white"/>
</svg>
