<svg width="40" height="40" viewBox="0 0 40 40" fill="none" xmlns="http://www.w3.org/2000/svg">
<g clip-path="url(#clip0_147_1603)">
<path d="M33.6577 9.21164H28.9702V4.52414C28.9702 3.87664 28.4458 3.35226 27.7983 3.35226H23.1108C22.4633 3.35226 21.939 3.87726 21.939 4.52414V9.21164H17.2515C16.604 9.21164 16.0796 9.73664 16.0796 10.3835V15.071C16.0796 15.7185 16.6046 16.2429 17.2515 16.2429H21.939V20.9304C21.939 21.5779 22.464 22.1023 23.1108 22.1023H27.7983C28.4458 22.1023 28.9702 21.5773 28.9702 20.9304V16.2429H33.6577C34.3046 16.2429 34.8296 15.7185 34.8296 15.071V10.3835C34.8296 9.73601 34.3046 9.21164 33.6577 9.21164Z" fill="white"/>
</g>
<path d="M28.3333 25V29.6667C28.3333 31.5335 28.3333 32.467 27.9699 33.18C27.6504 33.8072 27.1404 34.3172 26.5133 34.6367C25.8003 35 24.8668 35 22.9999 35H13.6666C11.7998 35 10.8663 35 10.1533 34.6367C9.52607 34.3172 9.01614 33.8072 8.69657 33.18C8.33325 32.467 8.33325 31.5335 8.33325 29.6667V9.28572C8.33325 8.40042 8.33325 7.95775 8.41682 7.5916C8.70175 6.34328 9.67654 5.3685 10.9249 5.08357C11.291 5 11.7337 5 12.619 5H18.3333M16.6666 30H19.9999" stroke="white" stroke-width="4" stroke-linecap="round" stroke-linejoin="round"/>
<defs>
<clipPath id="clip0_147_1603">
<rect width="20" height="20" fill="white" transform="translate(15.4546 2.72726)"/>
</clipPath>
</defs>
</svg>
