<svg width="30" height="39" viewBox="0 0 30 39" fill="none" xmlns="http://www.w3.org/2000/svg">
<path d="M23.6361 21C24.4708 21.0013 25.2977 20.8513 26.0694 20.5585C26.841 20.2656 27.5424 19.8357 28.1334 19.2934C28.7245 18.751 29.1935 18.1068 29.5138 17.3976C29.8341 16.6884 29.9993 15.928 30 15.16V9.83492C29.9986 9.06734 29.8328 8.30754 29.5122 7.5989C29.1916 6.89026 28.7225 6.24665 28.1315 5.70483C27.5406 5.16301 26.8394 4.73358 26.0681 4.44107C25.2968 4.14855 24.4704 3.99868 23.6361 4.00001H18.342C16.6609 4.00268 15.0494 4.61828 13.8607 5.71196C12.672 6.80564 12.0029 8.28823 12 9.83492V15.16C12.0015 16.7076 12.6699 18.1915 13.8588 19.2863C15.0477 20.381 16.6599 20.9973 18.342 21C18.6068 21 18.8607 20.9032 19.048 20.7309C19.2352 20.5586 19.3404 20.325 19.3404 20.0813C19.3404 19.8377 19.2352 19.604 19.048 19.4318C18.8607 19.2595 18.6068 19.1627 18.342 19.1627C17.1895 19.16 16.0852 18.7373 15.2708 17.9871C14.4565 17.2369 13.9984 16.2203 13.997 15.16V9.83492C13.9984 8.7751 14.4566 7.75906 15.2712 7.00965C16.0857 6.26024 17.19 5.83863 18.342 5.8373H23.6361C24.788 5.83863 25.8923 6.26024 26.7069 7.00965C27.5214 7.75906 27.9797 8.7751 27.9811 9.83492V15.16C27.9797 16.2203 27.5216 17.2369 26.7072 17.9871C25.8928 18.7373 24.7885 19.16 23.6361 19.1627C23.3713 19.1627 23.1173 19.2595 22.9301 19.4318C22.7428 19.604 22.6376 19.8377 22.6376 20.0813C22.6376 20.325 22.7428 20.5586 22.9301 20.7309C23.1173 20.9032 23.3713 21 23.6361 21Z" fill="white"/>
<path d="M20.9975 24C21.239 24 21.4706 23.902 21.6418 23.7274C21.813 23.5527 21.9098 23.3157 21.9111 23.0681V20.2518C21.9111 20.0982 21.9461 16.5241 25.0914 16.5241C25.3214 16.5067 25.5364 16.4006 25.6933 16.2273C25.8503 16.054 25.9375 15.8262 25.9375 15.5897C25.9375 15.3531 25.8503 15.1253 25.6933 14.952C25.5364 14.7787 25.3214 14.6727 25.0914 14.6552C23.9279 14.6163 22.7927 15.0275 21.9111 15.8073V15.5973C21.9111 15.4488 21.9461 11.8697 25.0914 11.8697C25.3323 11.8697 25.5635 11.7715 25.7339 11.5967C25.9043 11.4219 26 11.1849 26 10.9377C26 10.6906 25.9043 10.4535 25.7339 10.2788C25.5635 10.104 25.3323 10.0058 25.0914 10.0058C24.2731 9.96363 23.4592 10.1517 22.7376 10.5497C22.016 10.9477 21.4143 11.5405 20.9975 12.2639C20.5811 11.5413 19.9802 10.949 19.2596 10.5511C18.539 10.1531 17.7261 9.96459 16.9086 10.0058C16.6677 10.0058 16.4365 10.104 16.2661 10.2788C16.0957 10.4535 16 10.6906 16 10.9377C16 11.1849 16.0957 11.4219 16.2661 11.5967C16.4365 11.7715 16.6677 11.8697 16.9086 11.8697C19.974 11.8697 20.0889 15.2184 20.0889 15.6025V15.8073C19.2058 15.0312 18.0708 14.6237 16.9086 14.6654C16.6786 14.6829 16.4636 14.7889 16.3067 14.9623C16.1497 15.1356 16.0625 15.3634 16.0625 15.5999C16.0625 15.8364 16.1497 16.0642 16.3067 16.2375C16.4636 16.4109 16.6786 16.5169 16.9086 16.5344C19.974 16.5344 20.0889 19.878 20.0889 20.2621V23.0578C20.0882 23.1809 20.1112 23.3029 20.1565 23.4168C20.2018 23.5308 20.2686 23.6344 20.3529 23.7219C20.4373 23.8094 20.5377 23.879 20.6483 23.9267C20.7588 23.9744 20.8775 23.9993 20.9975 24Z" fill="white"/>
<path d="M25 25.3333V30.7778C25 32.9558 25 34.0448 24.5822 34.8767C24.2147 35.6084 23.6282 36.2034 22.907 36.5761C22.087 37 21.0135 37 18.8667 37H8.13333C5.98647 37 4.91303 37 4.09304 36.5761C3.37174 36.2034 2.78532 35.6084 2.41781 34.8767C2 34.0448 2 32.9558 2 30.7778V7C2 5.96715 2 5.45071 2.0961 5.02353C2.42377 3.56716 3.54478 2.42992 4.98034 2.09749C5.40141 2 5.91048 2 6.92857 2H13.5M11.5833 31.1667H15.4167" stroke="white" stroke-width="3" stroke-linecap="round" stroke-linejoin="round"/>
</svg>
