<svg width="42" height="42" viewBox="0 0 42 42" fill="none" xmlns="http://www.w3.org/2000/svg">
<path fill-rule="evenodd" clip-rule="evenodd" d="M15.683 32.3202C10.534 28.374 3.5 21.8551 3.5 15.6914C3.5 5.39459 13.1253 1.55026 21 9.50445C28.8747 1.55026 38.5 5.39459 38.5 15.6914C38.5 21.8552 31.466 28.374 26.317 32.3202C23.986 34.1068 22.8205 35 21 35C19.1795 35 18.014 34.1068 15.683 32.3202ZM28.875 10.9375C29.5998 10.9375 30.1875 11.5251 30.1875 12.25V14.4375H32.375C33.0998 14.4375 33.6875 15.0252 33.6875 15.75C33.6875 16.4749 33.0998 17.0625 32.375 17.0625H30.1875V19.25C30.1875 19.9749 29.5998 20.5625 28.875 20.5625C28.1502 20.5625 27.5625 19.9749 27.5625 19.25V17.0625H25.375C24.6502 17.0625 24.0625 16.4749 24.0625 15.75C24.0625 15.0252 24.6502 14.4375 25.375 14.4375H27.5625V12.25C27.5625 11.5251 28.1502 10.9375 28.875 10.9375Z" fill="white"/>
</svg>
