<svg width="17" height="17" viewBox="0 0 17 17" fill="none" xmlns="http://www.w3.org/2000/svg">
<g clip-path="url(#clip0_26_357)">
<path d="M0.251465 6.82024V6.63899C0.251465 4.45461 1.83021 2.59149 3.98271 2.23274C5.37959 1.99555 6.85771 2.45993 7.87646 3.48024L8.25146 3.85461L8.59834 3.48024C9.64522 2.45993 11.0952 1.99555 12.5202 2.23274C14.6733 2.59149 16.2515 4.45461 16.2515 6.63899V6.82024C16.2515 8.11711 15.714 9.35774 14.764 10.2421L9.11709 15.514C8.88272 15.7327 8.57334 15.8546 8.25146 15.8546C7.92959 15.8546 7.62021 15.7327 7.38584 15.514L1.73865 10.2421C0.789902 9.35774 0.251474 8.11711 0.251474 6.82024H0.251465Z" fill="white"/>
</g>
<defs>
<clipPath id="clip0_26_357">
<rect width="16" height="16" fill="white" transform="translate(0.251465 0.854736)"/>
</clipPath>
</defs>
</svg>
