<svg width="20" height="21" viewBox="0 0 20 21" fill="none" xmlns="http://www.w3.org/2000/svg">
<g clip-path="url(#clip0_26_398)">
<path d="M10.0022 5.60467C7.16453 5.60467 4.87563 7.89409 4.87563 10.7324C4.87563 13.5708 7.16453 15.8602 10.0022 15.8602C12.8399 15.8602 15.1288 13.5708 15.1288 10.7324C15.1288 7.89409 12.8399 5.60467 10.0022 5.60467ZM10.0022 14.0661C8.16843 14.0661 6.66927 12.5711 6.66927 10.7324C6.66927 8.89375 8.16397 7.39872 10.0022 7.39872C11.8405 7.39872 13.3352 8.89375 13.3352 10.7324C13.3352 12.5711 11.836 14.0661 10.0022 14.0661ZM16.5343 5.39492C16.5343 6.05988 15.9989 6.59095 15.3385 6.59095C14.6737 6.59095 14.1428 6.05542 14.1428 5.39492C14.1428 4.73443 14.6782 4.19889 15.3385 4.19889C15.9989 4.19889 16.5343 4.73443 16.5343 5.39492ZM19.9297 6.6088C19.8539 5.00666 19.488 3.58749 18.3146 2.41824C17.1456 1.24899 15.7267 0.883041 14.1249 0.802711C12.4741 0.708992 7.52593 0.708992 5.87507 0.802711C4.27775 0.878578 2.8589 1.24453 1.68544 2.41378C0.511991 3.58303 0.150586 5.0022 0.0702733 6.60434C-0.0234244 8.25557 -0.0234244 13.2048 0.0702733 14.856C0.146124 16.4582 0.511991 17.8774 1.68544 19.0466C2.8589 20.2159 4.27328 20.5818 5.87507 20.6621C7.52593 20.7559 12.4741 20.7559 14.1249 20.6621C15.7267 20.5863 17.1456 20.2203 18.3146 19.0466C19.4835 17.8774 19.8494 16.4582 19.9297 14.856C20.0234 13.2048 20.0234 8.26004 19.9297 6.6088ZM17.797 16.6278C17.449 17.5025 16.7752 18.1764 15.8963 18.5289C14.58 19.0511 11.4568 18.9306 10.0022 18.9306C8.54769 18.9306 5.41997 19.0466 4.1082 18.5289C3.23369 18.1808 2.55996 17.5069 2.20747 16.6278C1.68544 15.3112 1.80591 12.1873 1.80591 10.7324C1.80591 9.27755 1.68991 6.14914 2.20747 4.83707C2.55549 3.96237 3.22922 3.28849 4.1082 2.93593C5.42443 2.41378 8.54769 2.53427 10.0022 2.53427C11.4568 2.53427 14.5845 2.41824 15.8963 2.93593C16.7708 3.28402 17.4445 3.9579 17.797 4.83707C18.319 6.1536 18.1985 9.27755 18.1985 10.7324C18.1985 12.1873 18.319 15.3157 17.797 16.6278Z" fill="#ECA30C"/>
</g>
<defs>
<clipPath id="clip0_26_398">
<rect width="20" height="20" fill="white" transform="translate(0 0.732422)"/>
</clipPath>
</defs>
</svg>
