<svg width="16" height="16" viewBox="0 0 16 16" fill="none" xmlns="http://www.w3.org/2000/svg">
<g clip-path="url(#clip0_1_48)">
<path d="M8.37429 4.15419C6.24602 4.15419 4.52934 5.87125 4.52934 8C4.52934 10.1288 6.24602 11.8458 8.37429 11.8458C10.5026 11.8458 12.2192 10.1288 12.2192 8C12.2192 5.87125 10.5026 4.15419 8.37429 4.15419ZM8.37429 10.5003C6.99894 10.5003 5.87457 9.379 5.87457 8C5.87457 6.621 6.9956 5.49972 8.37429 5.49972C9.75299 5.49972 10.874 6.621 10.874 8C10.874 9.379 9.74964 10.5003 8.37429 10.5003ZM13.2733 3.99688C13.2733 4.49559 12.8718 4.8939 12.3765 4.8939C11.8779 4.8939 11.4797 4.49225 11.4797 3.99688C11.4797 3.50151 11.8813 3.09985 12.3765 3.09985C12.8718 3.09985 13.2733 3.50151 13.2733 3.99688ZM15.8199 4.90729C15.763 3.70568 15.4886 2.6413 14.6085 1.76436C13.7318 0.887426 12.6677 0.612964 11.4663 0.552717C10.2282 0.482428 6.51707 0.482428 5.27892 0.552717C4.08093 0.609617 3.01679 0.884079 2.1367 1.76102C1.25661 2.63796 0.985559 3.70233 0.925325 4.90394C0.855051 6.14236 0.855051 9.85429 0.925325 11.0927C0.982212 12.2943 1.25661 13.3587 2.1367 14.2356C3.01679 15.1126 4.07758 15.387 5.27892 15.4473C6.51707 15.5176 10.2282 15.5176 11.4663 15.4473C12.6677 15.3904 13.7318 15.1159 14.6085 14.2356C15.4853 13.3587 15.7597 12.2943 15.8199 11.0927C15.8902 9.85429 15.8902 6.14571 15.8199 4.90729ZM14.2204 12.4215C13.9593 13.0775 13.454 13.583 12.7948 13.8474C11.8076 14.239 9.4652 14.1486 8.37429 14.1486C7.28338 14.1486 4.93759 14.2356 3.95377 13.8474C3.29788 13.5863 2.79259 13.0809 2.52822 12.4215C2.1367 11.4341 2.22705 9.09115 2.22705 8C2.22705 6.90885 2.14005 4.56253 2.52822 3.57849C2.78924 2.92246 3.29454 2.41705 3.95377 2.15263C4.94094 1.76102 7.28338 1.85139 8.37429 1.85139C9.4652 1.85139 11.811 1.76436 12.7948 2.15263C13.4507 2.4137 13.956 2.91911 14.2204 3.57849C14.6119 4.56588 14.5215 6.90885 14.5215 8C14.5215 9.09115 14.6119 11.4375 14.2204 12.4215Z" fill="white"/>
</g>
<defs>
<clipPath id="clip0_1_48">
<rect width="15" height="15" fill="white" transform="translate(0.87262 0.5)"/>
</clipPath>
</defs>
</svg>
