<svg width="35" height="16" viewBox="0 0 35 16" fill="none" xmlns="http://www.w3.org/2000/svg">
<path d="M33.25 0H1.58333C1.16341 0 0.76068 0.166815 0.463748 0.463748C0.166815 0.76068 0 1.16341 0 1.58333V14.25C0 14.6699 0.166815 15.0727 0.463748 15.3696C0.76068 15.6665 1.16341 15.8333 1.58333 15.8333H33.25C33.6699 15.8333 34.0727 15.6665 34.3696 15.3696C34.6665 15.0727 34.8333 14.6699 34.8333 14.25V1.58333C34.8333 1.16341 34.6665 0.76068 34.3696 0.463748C34.0727 0.166815 33.6699 0 33.25 0ZM12.1125 11.875H10.1333L7.75833 7.91667L7.20417 6.8875V11.875H5.30417V3.95833H7.28333L9.65833 7.91667L10.1333 8.94583H10.2125C10.2125 8.94583 10.1333 7.99583 10.1333 7.67917V3.95833H12.1125V11.875ZM19.3167 11.875H13.2208V3.95833H19.2375V5.54167H15.2V6.96667H18.6833V8.55H15.2V10.2125H19.3167V11.875ZM27.9458 11.875H25.9667L25.175 8.075C25.0167 7.44167 24.8583 6.57083 24.8583 6.57083C24.8583 6.57083 24.7 7.44167 24.6208 8.075L23.75 11.875H21.85L19.6333 3.95833H21.6125L22.4042 7.28333C22.5779 7.93401 22.7101 8.59507 22.8 9.2625L23.1958 7.3625L23.9875 3.95833H25.8083L26.5208 7.3625L26.9167 9.2625L27.3125 7.28333L28.1042 3.95833H30.0833L27.9458 11.875Z" fill="#FF0000"/>
</svg>
