<svg width="16" height="16" viewBox="0 0 16 16" fill="none" xmlns="http://www.w3.org/2000/svg">
<g clip-path="url(#clip0_200_290)">
<path d="M4.36454 5.32562H1.35326C1.21962 5.32562 1.11133 5.43396 1.11133 5.56756V15.2415C1.11133 15.3751 1.21962 15.4834 1.35326 15.4834H4.36454C4.49818 15.4834 4.60647 15.3751 4.60647 15.2415V5.56756C4.60647 5.43396 4.49818 5.32562 4.36454 5.32562Z" fill="white"/>
<path d="M2.86011 0.516479C1.76443 0.516479 0.873047 1.4069 0.873047 2.50137C0.873047 3.59632 1.76443 4.48708 2.86011 4.48708C3.95492 4.48708 4.84558 3.59627 4.84558 2.50137C4.84563 1.4069 3.95492 0.516479 2.86011 0.516479Z" fill="white"/>
<path d="M12.0232 5.08521C10.8138 5.08521 9.91973 5.60512 9.37746 6.19588V5.56758C9.37746 5.43398 9.26917 5.32564 9.13552 5.32564H6.2517C6.11806 5.32564 6.00977 5.43398 6.00977 5.56758V15.2415C6.00977 15.3752 6.11806 15.4834 6.2517 15.4834H9.25639C9.39004 15.4834 9.49833 15.3752 9.49833 15.2415V10.4552C9.49833 8.84227 9.93643 8.21392 11.0607 8.21392C12.2852 8.21392 12.3825 9.22124 12.3825 10.5381V15.2416C12.3825 15.3752 12.4908 15.4835 12.6245 15.4835H15.6303C15.7639 15.4835 15.8722 15.3752 15.8722 15.2416V9.93524C15.8722 7.53693 15.4149 5.08521 12.0232 5.08521Z" fill="white"/>
</g>
<defs>
<clipPath id="clip0_200_290">
<rect width="15" height="15" fill="white" transform="translate(0.873047 0.5)"/>
</clipPath>
</defs>
</svg>
