<svg width="18" height="18" viewBox="0 0 18 18" fill="none" xmlns="http://www.w3.org/2000/svg">
<g clip-path="url(#clip0_189_146)">
<path d="M4.28267 6.04858H0.869897C0.718432 6.04858 0.595703 6.17137 0.595703 6.32278V17.2866C0.595703 17.438 0.718432 17.5608 0.869897 17.5608H4.28267C4.43414 17.5608 4.55687 17.438 4.55687 17.2866V6.32278C4.55687 6.17137 4.43414 6.04858 4.28267 6.04858Z" fill="#ECA30C"/>
<path d="M2.5772 0.598267C1.33543 0.598267 0.325195 1.60741 0.325195 2.84781C0.325195 4.08875 1.33543 5.09828 2.5772 5.09828C3.81798 5.09828 4.8274 4.0887 4.8274 2.84781C4.82745 1.60741 3.81798 0.598267 2.5772 0.598267Z" fill="#ECA30C"/>
<path d="M12.9627 5.77612C11.592 5.77612 10.5788 6.36536 9.96418 7.03489V6.32281C9.96418 6.1714 9.84145 6.04862 9.68999 6.04862H6.42165C6.27019 6.04862 6.14746 6.1714 6.14746 6.32281V17.2866C6.14746 17.4381 6.27019 17.5608 6.42165 17.5608H9.82697C9.97844 17.5608 10.1012 17.4381 10.1012 17.2866V11.8621C10.1012 10.0341 10.5977 9.32199 11.8719 9.32199C13.2597 9.32199 13.3699 10.4636 13.3699 11.9561V17.2867C13.3699 17.4381 13.4927 17.5609 13.6441 17.5609H17.0507C17.2022 17.5609 17.3249 17.4381 17.3249 17.2867V11.2728C17.3249 8.55475 16.8066 5.77612 12.9627 5.77612Z" fill="#ECA30C"/>
</g>
<defs>
<clipPath id="clip0_189_146">
<rect width="17" height="17" fill="white" transform="translate(0.325195 0.57959)"/>
</clipPath>
</defs>
</svg>
