<svg width="16" height="16" viewBox="0 0 16 16" fill="none" xmlns="http://www.w3.org/2000/svg">
<g clip-path="url(#clip0_1_40)">
<path d="M4.36423 5.32562H1.35296C1.21931 5.32562 1.11102 5.43396 1.11102 5.56756V15.2415C1.11102 15.3751 1.21931 15.4834 1.35296 15.4834H4.36423C4.49788 15.4834 4.60617 15.3751 4.60617 15.2415V5.56756C4.60617 5.43396 4.49788 5.32562 4.36423 5.32562Z" fill="white"/>
<path d="M2.85968 0.516479C1.76401 0.516479 0.87262 1.4069 0.87262 2.50137C0.87262 3.59632 1.76401 4.48708 2.85968 4.48708C3.95449 4.48708 4.84515 3.59627 4.84515 2.50137C4.8452 1.4069 3.95449 0.516479 2.85968 0.516479Z" fill="white"/>
<path d="M12.0236 5.08521C10.8142 5.08521 9.92016 5.60512 9.37789 6.19588V5.56758C9.37789 5.43398 9.2696 5.32564 9.13595 5.32564H6.25213C6.11848 5.32564 6.01019 5.43398 6.01019 5.56758V15.2415C6.01019 15.3752 6.11848 15.4834 6.25213 15.4834H9.25682C9.39047 15.4834 9.49876 15.3752 9.49876 15.2415V10.4552C9.49876 8.84227 9.93685 8.21392 11.0612 8.21392C12.2857 8.21392 12.383 9.22124 12.383 10.5381V15.2416C12.383 15.3752 12.4913 15.4835 12.6249 15.4835H15.6307C15.7644 15.4835 15.8726 15.3752 15.8726 15.2416V9.93524C15.8726 7.53693 15.4153 5.08521 12.0236 5.08521Z" fill="white"/>
</g>
<defs>
<clipPath id="clip0_1_40">
<rect width="15" height="15" fill="white" transform="translate(0.87262 0.5)"/>
</clipPath>
</defs>
</svg>
