<svg width="18" height="18" viewBox="0 0 18 18" fill="none" xmlns="http://www.w3.org/2000/svg">
<g clip-path="url(#clip0_26_414)">
<path d="M4.62381 6.20166H1.21104C1.05957 6.20166 0.936844 6.32444 0.936844 6.47585V17.4396C0.936844 17.5911 1.05957 17.7138 1.21104 17.7138H4.62381C4.77528 17.7138 4.89801 17.5911 4.89801 17.4396V6.47585C4.89801 6.32444 4.77528 6.20166 4.62381 6.20166Z" fill="#ECA30C"/>
<path d="M2.91866 0.751221C1.6769 0.751221 0.666656 1.76036 0.666656 3.00076C0.666656 4.2417 1.6769 5.25123 2.91866 5.25123C4.15944 5.25123 5.16886 4.24165 5.16886 3.00076C5.16891 1.76036 4.15944 0.751221 2.91866 0.751221Z" fill="#ECA30C"/>
<path d="M13.3045 5.9292C11.9338 5.9292 10.9205 6.51844 10.3059 7.18797V6.47589C10.3059 6.32448 10.1832 6.20169 10.0317 6.20169H6.76341C6.61194 6.20169 6.48921 6.32448 6.48921 6.47589V17.4397C6.48921 17.5911 6.61194 17.7139 6.76341 17.7139H10.1687C10.3202 17.7139 10.4429 17.5911 10.4429 17.4397V12.0151C10.4429 10.1872 10.9394 9.47507 12.2137 9.47507C13.6014 9.47507 13.7117 10.6167 13.7117 12.1092V17.4397C13.7117 17.5912 13.8344 17.7139 13.9859 17.7139H17.3925C17.5439 17.7139 17.6667 17.5912 17.6667 17.4397V11.4259C17.6667 8.70782 17.1484 5.9292 13.3045 5.9292Z" fill="#ECA30C"/>
</g>
<defs>
<clipPath id="clip0_26_414">
<rect width="17" height="17" fill="white" transform="translate(0.666656 0.732422)"/>
</clipPath>
</defs>
</svg>
