<svg width="1440" height="408" viewBox="0 0 1440 408" fill="none" xmlns="http://www.w3.org/2000/svg">
<mask id="mask0_72_926" style="mask-type:alpha" maskUnits="userSpaceOnUse" x="0" y="0" width="1440" height="408">
<rect width="1440" height="408" fill="#1C1A86"/>
</mask>
<g mask="url(#mask0_72_926)">
<path d="M62.0565 10.8788C35.3698 36.9649 36.8649 69.7911 38.2989 101.536C39.7323 133.038 41.218 165.631 14.9033 191.353C-11.4113 217.075 -54.7895 225.457 -96.7315 233.551C-119.205 237.889 -142.451 242.376 -162.887 249.481L-161.133 251.167C-140.868 244.131 -117.731 239.653 -95.333 235.341C-53.0715 227.177 -9.36659 218.743 17.3202 192.657C44.007 166.571 42.5118 133.745 41.0778 102C39.6445 70.498 38.1587 37.9054 64.4734 12.1831C90.788 -13.5392 134.166 -21.9205 176.124 -30.0062C218.386 -38.1701 262.091 -46.6036 288.777 -72.6897L286.377 -73.9854C260.053 -48.2544 216.684 -39.8818 174.726 -31.796C132.464 -23.6321 88.7593 -15.1986 62.0725 10.8874L62.0565 10.8788Z" fill="white"/>
<path d="M78.1581 19.5684C51.4713 45.6545 52.9665 78.4806 54.4004 110.225C55.8338 141.728 57.3195 174.32 31.0049 200.043C4.69025 225.765 -38.688 234.146 -80.63 242.241C-103.104 246.579 -126.35 251.065 -146.785 258.171L-145.032 259.856C-124.767 252.82 -101.629 248.343 -79.2315 244.03C-36.9699 235.866 6.73497 227.433 33.4217 201.347C60.1085 175.261 58.6134 142.435 57.1794 110.69C55.746 79.1875 54.2603 46.595 80.5749 20.8727C106.89 -4.84967 150.268 -13.2309 192.226 -21.3167C234.487 -29.4806 278.192 -37.914 304.879 -64.0001L302.478 -65.2958C276.155 -39.5648 232.785 -31.1922 190.827 -23.1064C148.566 -14.9425 104.861 -6.50906 78.1741 19.577L78.1581 19.5684Z" fill="white"/>
<path d="M94.2595 28.2578C67.5728 54.3439 69.0679 87.17 70.5019 118.915C71.9353 150.417 73.405 183.001 47.0903 208.723C20.7757 234.446 -22.6025 242.827 -64.5445 250.921C-87.0183 255.26 -110.264 259.746 -130.7 266.851L-128.946 268.537C-108.681 261.501 -85.5435 257.024 -63.146 252.711C-20.8845 244.547 22.8204 236.114 49.5072 210.028C76.194 183.942 74.6988 151.115 73.2649 119.371C71.8315 87.8683 70.3618 55.2844 96.6764 29.5621C122.991 3.83975 166.369 -4.54149 208.311 -12.6359C250.589 -20.7911 294.278 -29.2333 320.964 -55.3194L318.564 -56.615C292.24 -30.884 248.871 -22.5114 206.929 -14.417C164.667 -6.25311 120.962 2.18037 94.2756 28.2664L94.2595 28.2578Z" fill="white"/>
<path d="M110.377 36.9559C83.6906 63.042 85.1857 95.8682 86.6197 127.613C88.0531 159.115 89.5387 191.708 63.2241 217.43C36.9095 243.153 -6.46874 251.534 -48.4107 259.628C-70.8845 263.967 -94.1306 268.453 -114.566 275.558L-112.812 277.244C-92.5475 270.208 -69.4097 265.73 -47.0122 261.418C-4.75069 253.254 38.9542 244.821 65.641 218.734C92.3278 192.648 90.8326 159.822 89.3986 128.078C87.9653 96.5751 86.4795 63.9826 112.794 38.2602C139.109 12.5379 182.487 4.15665 224.445 -3.92909C266.707 -12.093 310.411 -20.5265 337.098 -46.6126L334.697 -47.9082C308.374 -22.1772 265.005 -13.8046 223.047 -5.71888C180.785 2.44503 137.08 10.8785 110.393 36.9646L110.377 36.9559Z" fill="white"/>
<path d="M126.479 45.6455C99.7925 71.7316 101.288 104.558 102.722 136.302C104.155 167.805 105.625 200.389 79.31 226.111C52.9954 251.833 9.61719 260.215 -32.3248 268.309C-54.7986 272.648 -78.0447 277.134 -98.48 284.239L-96.7265 285.925C-76.4615 278.889 -53.3238 274.411 -30.9263 270.099C11.3352 261.935 55.0401 253.501 81.7269 227.415C108.414 201.329 106.919 168.503 105.485 136.758C104.051 105.256 102.581 72.6721 128.896 46.9498C155.211 21.2274 198.589 12.8462 240.531 4.75182C282.808 -3.40345 326.497 -11.8456 353.184 -37.9317L350.783 -39.2273C324.46 -13.4963 281.09 -5.12374 239.148 2.97067C196.887 11.1346 153.182 19.5681 126.495 45.6541L126.479 45.6455Z" fill="white"/>
<path d="M142.581 54.3347C115.894 80.4208 117.389 113.247 118.823 144.992C120.257 176.494 121.726 209.078 95.4116 234.8C69.097 260.523 25.7188 268.904 -16.2232 276.998C-38.697 281.337 -61.9431 285.823 -82.3785 292.928L-80.625 294.614C-60.36 287.578 -37.2222 283.1 -14.8247 278.788C27.4368 270.624 71.1417 262.191 97.8285 236.105C124.515 210.019 123.02 177.192 121.586 145.448C120.153 113.945 118.667 81.3527 144.982 55.6304C171.296 29.908 214.675 21.5268 256.633 13.441C298.894 5.27712 342.599 -3.15636 369.286 -29.2425L366.885 -30.5381C340.561 -4.8071 297.192 3.56548 255.25 11.6599C212.989 19.8238 169.284 28.2573 142.597 54.3433L142.581 54.3347Z" fill="white"/>
<path d="M158.682 63.0243C131.996 89.1104 133.491 121.937 134.925 153.681C136.358 185.184 137.828 217.768 111.513 243.49C85.1986 269.212 41.8203 277.593 -0.121677 285.688C-22.5955 290.026 -45.8415 294.513 -66.2769 301.618L-64.5234 303.304C-44.2584 296.268 -21.1207 291.79 1.27684 287.478C43.5384 279.314 87.2433 270.88 113.93 244.794C140.617 218.708 139.122 185.882 137.688 154.137C136.254 122.635 134.769 90.0423 161.083 64.3199C187.398 38.5976 230.776 30.2163 272.734 22.1306C314.996 13.9667 358.701 5.53322 385.387 -20.5529L382.986 -21.8485C356.663 3.88248 313.294 12.2551 271.352 20.3495C229.09 28.5134 185.385 36.9468 158.698 63.0329L158.682 63.0243Z" fill="white"/>
<path d="M1293.56 283.242C1266.87 309.328 1268.36 342.154 1269.8 373.899C1271.23 405.401 1272.72 437.994 1246.4 463.716C1220.09 489.439 1176.71 497.82 1134.77 505.914C1112.29 510.253 1089.05 514.739 1068.61 521.844L1070.37 523.53C1090.63 516.494 1113.77 512.017 1136.17 507.704C1178.43 499.54 1222.13 491.107 1248.82 465.021C1275.51 438.935 1274.01 406.108 1272.58 374.364C1271.14 342.861 1269.66 310.269 1295.97 284.546C1322.29 258.824 1365.67 250.443 1407.62 242.357C1449.89 234.193 1493.59 225.76 1520.28 199.674L1517.88 198.378C1491.55 224.109 1448.18 232.481 1406.23 240.567C1363.96 248.731 1320.26 257.165 1293.57 283.251L1293.56 283.242Z" fill="white"/>
<path d="M1309.66 291.932C1282.97 318.018 1284.47 350.844 1285.9 382.588C1287.33 414.091 1288.82 446.683 1262.5 472.406C1236.19 498.128 1192.81 506.509 1150.87 514.604C1128.4 518.942 1105.15 523.428 1084.71 530.534L1086.47 532.219C1106.73 525.183 1129.87 520.706 1152.27 516.394C1194.53 508.23 1238.23 499.796 1264.92 473.71C1291.61 447.624 1290.11 414.798 1288.68 383.053C1287.25 351.551 1285.76 318.958 1312.07 293.236C1338.39 267.513 1381.77 259.132 1423.73 251.046C1465.99 242.883 1509.69 234.449 1536.38 208.363L1533.98 207.067C1507.65 232.798 1464.29 241.171 1422.33 249.257C1380.07 257.421 1336.36 265.854 1309.67 291.94L1309.66 291.932Z" fill="white"/>
<path d="M1325.76 300.621C1299.07 326.707 1300.57 359.533 1302 391.278C1303.44 422.78 1304.9 455.364 1278.59 481.087C1252.28 506.809 1208.9 515.19 1166.96 523.285C1144.48 527.623 1121.24 532.109 1100.8 539.215L1102.55 540.9C1122.82 533.864 1145.96 529.387 1168.35 525.074C1210.62 516.911 1254.32 508.477 1281.01 482.391C1307.69 456.305 1306.2 423.479 1304.76 391.734C1303.33 360.232 1301.86 327.648 1328.18 301.925C1354.49 276.203 1397.87 267.822 1439.81 259.727C1482.09 251.572 1525.78 243.13 1552.46 217.044L1550.06 215.748C1523.74 241.479 1480.37 249.852 1438.43 257.946C1396.17 266.11 1352.46 274.544 1325.78 300.63L1325.76 300.621Z" fill="white"/>
<path d="M1341.88 309.319C1315.19 335.405 1316.69 368.231 1318.12 399.976C1319.55 431.478 1321.04 464.071 1294.72 489.793C1268.41 515.516 1225.03 523.897 1183.09 531.991C1160.62 536.33 1137.37 540.816 1116.93 547.921L1118.69 549.607C1138.95 542.571 1162.09 538.093 1184.49 533.781C1226.75 525.617 1270.45 517.184 1297.14 491.098C1323.83 465.011 1322.33 432.185 1320.9 400.441C1319.47 368.938 1317.98 336.346 1344.29 310.623C1370.61 284.901 1413.99 276.52 1455.95 268.434C1498.21 260.27 1541.91 251.837 1568.6 225.75L1566.2 224.455C1539.87 250.186 1496.5 258.558 1454.55 266.644C1412.28 274.808 1368.58 283.242 1341.89 309.328L1341.88 309.319Z" fill="white"/>
<path d="M1357.98 318.009C1331.29 344.095 1332.79 376.921 1334.22 408.665C1335.65 440.168 1337.12 472.752 1310.81 498.474C1284.49 524.196 1241.12 532.578 1199.17 540.672C1176.7 545.011 1153.45 549.497 1133.02 556.602L1134.77 558.288C1155.04 551.252 1178.18 546.774 1200.57 542.462C1242.83 534.298 1286.54 525.865 1313.23 499.778C1339.91 473.692 1338.42 440.866 1336.98 409.121C1335.55 377.619 1334.08 345.035 1360.4 319.313C1386.71 293.59 1430.09 285.209 1472.03 277.115C1514.31 268.96 1558 260.517 1584.68 234.431L1582.28 233.136C1555.96 258.867 1512.59 267.239 1470.65 275.334C1428.39 283.498 1384.68 291.931 1357.99 318.017L1357.98 318.009Z" fill="white"/>
<path d="M1374.08 326.698C1347.39 352.784 1348.89 385.61 1350.32 417.355C1351.76 448.857 1353.23 481.441 1326.91 507.164C1300.6 532.886 1257.22 541.267 1215.28 549.362C1192.8 553.7 1169.56 558.186 1149.12 565.292L1150.88 566.977C1171.14 559.941 1194.28 555.464 1216.68 551.151C1258.94 542.987 1302.64 534.554 1329.33 508.468C1356.02 482.382 1354.52 449.556 1353.09 417.811C1351.65 386.309 1350.17 353.716 1376.48 327.994C1402.8 302.271 1446.17 293.89 1488.13 285.804C1530.39 277.64 1574.1 269.207 1600.79 243.121L1598.38 241.825C1572.06 267.556 1528.69 275.929 1486.75 284.023C1444.49 292.187 1400.78 300.621 1374.1 326.707L1374.08 326.698Z" fill="white"/>
<path d="M1390.18 335.388C1363.5 361.474 1364.99 394.3 1366.43 426.045C1367.86 457.547 1369.33 490.131 1343.01 515.853C1316.7 541.576 1273.32 549.957 1231.38 558.051C1208.91 562.39 1185.66 566.876 1165.22 573.981L1166.98 575.667C1187.24 568.631 1210.38 564.153 1232.78 559.841C1275.04 551.677 1318.74 543.244 1345.43 517.158C1372.12 491.072 1370.62 458.245 1369.19 426.501C1367.75 394.998 1366.27 362.406 1392.58 336.683C1418.9 310.961 1462.28 302.58 1504.23 294.494C1546.5 286.33 1590.2 277.897 1616.89 251.811L1614.49 250.515C1588.16 276.246 1544.79 284.618 1502.85 292.713C1460.59 300.877 1416.89 309.31 1390.2 335.396L1390.18 335.388Z" fill="white"/>
</g>
</svg>
