<svg width="46" height="46" viewBox="0 0 46 46" fill="none" xmlns="http://www.w3.org/2000/svg">
<path d="M33.0625 2.15625H12.9375C10.925 2.15625 9.34375 3.7375 9.34375 5.75V40.25C9.34375 42.2625 10.925 43.8438 12.9375 43.8438H33.0625C35.075 43.8438 36.6562 42.2625 36.6562 40.25V5.75C36.6562 3.7375 35.075 2.15625 33.0625 2.15625Z" fill="white"/>
<path d="M33.0625 5.03125H28.0312C27.7437 5.03125 27.4562 5.24687 27.3844 5.53437L26.8094 7.1875H19.1906L18.6156 5.53437C18.5437 5.24687 18.2562 5.03125 17.9688 5.03125H12.9375C12.5062 5.03125 12.2188 5.31875 12.2188 5.75V40.25C12.2188 40.6813 12.5062 40.9688 12.9375 40.9688H33.0625C33.4937 40.9688 33.7812 40.6813 33.7812 40.25V5.75C33.7812 5.31875 33.4937 5.03125 33.0625 5.03125Z" fill="#ECA30C"/>
<path d="M28.75 25.875C28.75 22.7125 26.1625 20.125 23 20.125C19.8375 20.125 17.25 22.7125 17.25 25.875C17.25 29.0375 19.8375 31.625 23 31.625C26.1625 31.625 28.75 29.0375 28.75 25.875ZM23 30.1875C20.6281 30.1875 18.6875 28.2469 18.6875 25.875C18.6875 23.5031 20.6281 21.5625 23 21.5625C25.3719 21.5625 27.3125 23.5031 27.3125 25.875C27.3125 28.2469 25.3719 30.1875 23 30.1875Z" fill="white"/>
<path d="M23.0001 16.2437C21.2751 16.2437 19.6939 17.3219 18.7595 19.0469C18.5439 19.4062 18.6876 19.8375 19.047 20.0531C19.4064 20.2687 19.8376 20.125 20.0533 19.7656C20.772 18.4719 21.8501 17.6812 23.072 17.6812C24.2939 17.6812 25.372 18.4719 26.0908 19.7656C26.2345 19.9812 26.4501 20.125 26.7376 20.125C26.8814 20.125 26.9533 20.125 27.097 20.0531C27.4564 19.8375 27.6001 19.4062 27.3845 19.0469C26.3064 17.3219 24.7251 16.2437 23.0001 16.2437Z" fill="white"/>
<path d="M28.3909 17.8969C28.5347 17.8969 28.6784 17.8969 28.7503 17.825C29.1097 17.6094 29.1816 17.1781 28.9659 16.8188C27.5284 14.5188 25.3722 13.1531 22.9284 13.1531C20.4847 13.1531 18.3284 14.5188 16.8909 16.8188C16.6753 17.1781 16.8191 17.6094 17.1066 17.825C17.4659 18.0406 17.8972 17.8969 18.1128 17.6094C19.2628 15.7406 21.0597 14.6625 22.9284 14.6625C24.7972 14.6625 26.5941 15.7406 27.7441 17.6094C27.9597 17.825 28.1753 17.8969 28.3909 17.8969Z" fill="white"/>
<path d="M15.2375 14.5906C15.0219 14.95 15.0937 15.3813 15.4531 15.5969C15.8125 15.8125 16.2437 15.7406 16.4594 15.3813C18.0406 12.9375 20.4844 11.5 23 11.5C25.5156 11.5 27.9594 12.9375 29.6125 15.3813C29.7563 15.5969 29.9719 15.6688 30.1875 15.6688C30.3313 15.6688 30.475 15.5969 30.6187 15.525C30.9781 15.3094 31.05 14.8781 30.8344 14.5188C28.8938 11.6438 26.0906 9.99063 23.0719 9.99063C20.0531 9.99063 17.1063 11.7156 15.2375 14.5906Z" fill="white"/>
<path d="M22.6406 24.4375H24.4375C24.8688 24.4375 25.1562 24.15 25.1562 23.7188C25.1562 23.2875 24.8688 23 24.4375 23H23.7188C23.7188 22.5687 23.4313 22.2812 23 22.2812C22.5688 22.2812 22.2812 22.5687 22.2812 23V23.0719C21.4906 23.2156 20.8438 23.9344 20.8438 24.7969C20.8438 25.8031 21.6344 26.5938 22.6406 26.5938H23.3594C23.575 26.5938 23.7188 26.7375 23.7188 26.9531C23.7188 27.1687 23.575 27.3125 23.3594 27.3125H21.5625C21.1312 27.3125 20.8438 27.6 20.8438 28.0312C20.8438 28.4625 21.1312 28.75 21.5625 28.75H22.2812C22.2812 29.1813 22.5688 29.4688 23 29.4688C23.4313 29.4688 23.7188 29.1813 23.7188 28.75V28.6781C24.5094 28.5344 25.1562 27.8156 25.1562 26.9531C25.1562 25.9469 24.3656 25.1562 23.3594 25.1562H22.6406C22.425 25.1562 22.2812 25.0125 22.2812 24.7969C22.2812 24.5812 22.425 24.4375 22.6406 24.4375Z" fill="white"/>
<path d="M19.4062 33.0625H17.9688C16.7469 33.0625 15.8125 33.9969 15.8125 35.2188C15.8125 36.4406 16.7469 37.375 17.9688 37.375H19.4062C20.6281 37.375 21.5625 36.4406 21.5625 35.2188C21.5625 33.9969 20.6281 33.0625 19.4062 33.0625ZM19.4062 35.9375H17.9688C17.5375 35.9375 17.25 35.65 17.25 35.2188C17.25 34.7875 17.5375 34.5 17.9688 34.5H19.4062C19.8375 34.5 20.125 34.7875 20.125 35.2188C20.125 35.65 19.8375 35.9375 19.4062 35.9375Z" fill="white"/>
<path d="M28.0312 33.0625H26.5938C25.3719 33.0625 24.4375 33.9969 24.4375 35.2188C24.4375 36.4406 25.3719 37.375 26.5938 37.375H28.0312C29.2531 37.375 30.1875 36.4406 30.1875 35.2188C30.1875 33.9969 29.2531 33.0625 28.0312 33.0625ZM28.0312 35.9375H26.5938C26.1625 35.9375 25.875 35.65 25.875 35.2188C25.875 34.7875 26.1625 34.5 26.5938 34.5H28.0312C28.4625 34.5 28.75 34.7875 28.75 35.2188C28.75 35.65 28.4625 35.9375 28.0312 35.9375Z" fill="white"/>
</svg>
