<svg width="46" height="46" viewBox="0 0 46 46" fill="none" xmlns="http://www.w3.org/2000/svg">
<path d="M33.0625 2.15625H12.9375C10.925 2.15625 9.34375 3.7375 9.34375 5.75V40.25C9.34375 42.2625 10.925 43.8438 12.9375 43.8438H33.0625C35.075 43.8438 36.6562 42.2625 36.6562 40.25V5.75C36.6562 3.7375 35.075 2.15625 33.0625 2.15625Z" fill="white"/>
<path d="M33.0625 5.03125H28.0312C27.7437 5.03125 27.4562 5.24687 27.3844 5.53437L26.8094 7.1875H19.1906L18.6156 5.53437C18.5437 5.24687 18.2562 5.03125 17.9688 5.03125H12.9375C12.5062 5.03125 12.2188 5.31875 12.2188 5.75V40.25C12.2188 40.6813 12.5062 40.9688 12.9375 40.9688H33.0625C33.4937 40.9688 33.7812 40.6813 33.7812 40.25V5.75C33.7812 5.31875 33.4937 5.03125 33.0625 5.03125Z" fill="#ECA30C"/>
<path d="M28.3917 29.1306C28.4954 29.1306 28.5936 29.0839 28.6589 29.0033C28.7242 28.9227 28.7497 28.817 28.7282 28.7156L28.5116 27.6906C28.635 27.5713 28.7125 27.4047 28.7125 27.2195C28.7125 27.0245 28.6257 26.8515 28.4909 26.7313V23.172L27.6227 23.7093V26.7313C27.4879 26.8515 27.401 27.0245 27.401 27.2195C27.401 27.4047 27.4785 27.5713 27.6019 27.6906L27.3853 28.7156C27.3639 28.817 27.3894 28.9227 27.4546 29.0033C27.52 29.0839 27.6181 29.1306 27.7218 29.1306H28.3917ZM28.686 21.0951L23.0378 17.5987C22.8724 17.4968 22.6859 17.4456 22.4995 17.4456C22.313 17.4456 22.1264 17.4967 21.962 17.5987L16.3137 21.0951C16.1629 21.1884 16.0713 21.3532 16.0713 21.5306C16.0713 21.708 16.1629 21.8729 16.3137 21.9664L21.9619 25.4628C22.1264 25.5648 22.313 25.6158 22.4994 25.6158C22.6859 25.6158 22.8724 25.5647 23.0378 25.4628L28.686 21.9664C28.8368 21.873 28.9284 21.708 28.9284 21.5306C28.9284 21.3532 28.8368 21.1883 28.686 21.0951ZM22.4994 26.484C22.1476 26.484 21.8042 26.3863 21.5049 26.201L18.2102 24.1614V27.6735C18.2102 28.7129 20.1315 29.5544 22.4994 29.5544C24.8682 29.5544 26.7893 28.7129 26.7893 27.6735V24.1614L23.4948 26.201C23.1955 26.3863 22.8513 26.484 22.4994 26.484Z" fill="white"/>
</svg>
