<svg width="16" height="16" viewBox="0 0 16 16" fill="none" xmlns="http://www.w3.org/2000/svg">
<g clip-path="url(#clip0_1_56)">
<path d="M15.6235 11.8379L14.9423 14.791C14.8466 15.2085 14.4797 15.5006 14.0499 15.5006C6.65863 15.5 0.646912 9.48827 0.646912 2.09667C0.646912 1.66718 0.938972 1.29979 1.35648 1.20458L4.30961 0.523427C4.73969 0.423759 5.17914 0.647001 5.35785 1.05429L6.72074 4.233C6.88006 4.60741 6.77259 5.04364 6.45765 5.30087L4.88031 6.56737C5.87582 8.5953 7.52465 10.2441 9.55316 11.2402L10.8446 9.66405C11.0991 9.34823 11.5386 9.23895 11.913 9.40111L15.0917 10.7637C15.4741 10.9648 15.7231 11.4101 15.6235 11.8379Z" fill="white"/>
</g>
<defs>
<clipPath id="clip0_1_56">
<rect width="15" height="15" fill="white" transform="translate(0.646912 0.5)"/>
</clipPath>
</defs>
</svg>
