<svg width="24" height="23" viewBox="0 0 24 23" fill="none" xmlns="http://www.w3.org/2000/svg">
<g clip-path="url(#clip0_174_1954)">
<path d="M23.259 17.3848L22.2146 21.913C22.0678 22.5531 21.5052 23.001 20.8462 23.001C9.51289 23.0001 0.294922 13.7821 0.294922 2.44832C0.294922 1.78977 0.742748 1.22645 1.38293 1.08045L5.91105 0.0360188C6.57051 -0.116805 7.24434 0.225499 7.51836 0.850003L9.60813 5.72403C9.85241 6.29813 9.68764 6.96701 9.20473 7.36143L6.78613 9.3034C8.31258 12.4129 10.8408 14.9411 13.9512 16.4684L15.9313 14.0516C16.3216 13.5674 16.9955 13.3998 17.5696 13.6485L22.4437 15.7378C23.0299 16.0462 23.4117 16.729 23.259 17.3848Z" fill="white"/>
</g>
<defs>
<clipPath id="clip0_174_1954">
<rect width="23" height="23" fill="white" transform="translate(0.294922)"/>
</clipPath>
</defs>
</svg>
