<svg width="54" height="54" viewBox="0 0 54 54" fill="none" xmlns="http://www.w3.org/2000/svg">
<circle cx="26.9672" cy="26.9672" r="26.9672" fill="#ECA30C"/>
<g clip-path="url(#clip0_174_1959)">
<path d="M26.3358 37.5162C24.0715 34.7314 19.0356 27.9822 19.0356 24.1912C19.0356 19.5916 22.7642 15.8631 27.3638 15.8631C31.9616 15.8631 35.6919 19.5916 35.6919 24.1912C35.6919 27.9822 30.6169 34.7314 28.3918 37.5162C27.8582 38.1798 26.8693 38.1798 26.3358 37.5162ZM27.3638 26.9672C28.8949 26.9672 30.1398 25.7223 30.1398 24.1912C30.1398 22.66 28.8949 21.4151 27.3638 21.4151C25.8326 21.4151 24.5877 22.66 24.5877 24.1912C24.5877 25.7223 25.8326 26.9672 27.3638 26.9672Z" fill="white"/>
</g>
<defs>
<clipPath id="clip0_174_1959">
<rect width="16.6562" height="22.2083" fill="white" transform="translate(19.0356 15.8631)"/>
</clipPath>
</defs>
</svg>
