<svg width="20" height="20" viewBox="0 0 20 20" fill="none" xmlns="http://www.w3.org/2000/svg">
<g clip-path="url(#clip0_87_1126)">
<path d="M20 10C20 10.8505 19.3111 11.5389 18.4615 11.5389H11.5385V18.462C11.5385 19.3125 10.8495 20 10 20C9.15048 20 8.46154 19.3125 8.46154 18.462V11.5389H1.53846C0.688942 11.5389 0 10.8505 0 10C0 9.14952 0.688942 8.46202 1.53846 8.46202H8.46154V1.53894C8.46154 0.688462 9.15048 0 10 0C10.8495 0 11.5385 0.688462 11.5385 1.53894V8.46202H18.4615C19.3125 8.46154 20 9.14904 20 10Z" fill="#ECA30C"/>
</g>
<defs>
<clipPath id="clip0_87_1126">
<rect width="20" height="20" fill="white"/>
</clipPath>
</defs>
</svg>
