<svg width="12" height="10" viewBox="0 0 12 10" fill="none" xmlns="http://www.w3.org/2000/svg">
<g clip-path="url(#clip0_1_70)">
<path d="M11.8649 5C11.8649 5.42524 11.4804 5.76947 11.0063 5.76947H7.1426V9.23101C7.1426 9.65625 6.7581 10 6.28399 10C5.80988 10 5.42538 9.65625 5.42538 9.23101V5.76947H1.56165C1.08754 5.76947 0.703041 5.42524 0.703041 5C0.703041 4.57476 1.08754 4.23101 1.56165 4.23101H5.42538V0.769471C5.42538 0.344231 5.80988 0 6.28399 0C6.7581 0 7.1426 0.344231 7.1426 0.769471V4.23101H11.0063C11.4812 4.23077 11.8649 4.57452 11.8649 5Z" fill="#ECA30C"/>
</g>
<defs>
<clipPath id="clip0_1_70">
<rect width="11.1619" height="10" fill="white" transform="translate(0.703041)"/>
</clipPath>
</defs>
</svg>
