<svg width="39" height="39" viewBox="0 0 39 39" fill="none" xmlns="http://www.w3.org/2000/svg">
<path d="M25.5937 4.875C25.5937 7.56768 23.4114 9.75 20.7187 9.75C18.0261 9.75 15.8437 7.56768 15.8437 4.875C15.8437 2.18232 18.0261 0 20.7187 0C23.4114 0 25.5937 2.18232 25.5937 4.875ZM24.7338 20.2031C25.5381 19.3736 26.8765 19.2105 27.7791 19.9806C28.8044 20.8551 28.8577 22.4258 27.9391 23.3741L24.781 26.6358C24.7332 26.6856 24.6757 26.7253 24.6122 26.7524C24.5486 26.7795 24.4803 26.7935 24.4112 26.7935C24.3421 26.7935 24.2737 26.7795 24.2102 26.7524C24.1466 26.7253 24.0892 26.6856 24.0414 26.6358L20.8825 23.3741C19.9646 22.4265 20.0195 20.8551 21.0448 19.9806C21.939 19.2182 23.269 19.3576 24.0901 20.2031L24.4116 20.5344L24.7338 20.2031ZM12.4838 12.6468L7.61108 20.2503C7.0596 21.1164 7.29345 22.2795 8.13362 22.8485C8.9738 23.4168 10.1027 23.1761 10.6542 22.31C12.0252 20.1711 13.3956 18.0314 14.7659 15.8925C15.2016 15.2123 15.648 14.8992 16.1225 14.8489C16.2695 15.7775 16.4105 16.7037 16.5125 17.6498V19.4558C15.8224 22.4539 15.181 25.5412 14.4262 28.5149C14.2685 29.1281 14.1405 29.624 14.6745 30.145C14.9579 30.4208 15.2656 30.4748 15.6518 30.4748L17.0625 30.4688V36.5625C17.0625 37.9366 18.1335 39 19.5 39H21.9375C23.3391 38.9939 24.375 37.958 24.375 36.5625V30.4688H28.0312C28.8318 30.4688 29.3627 30.0597 29.3627 29.231V28.0122C31.0461 26.7653 31.8002 25.2129 31.8002 23.1372C31.8002 18.8609 29.25 17.0625 26.8125 15.8438C26.1498 15.5124 24.7802 14.398 24.375 13.4062C23.7999 11.9986 23.9286 10.9688 22.2856 10.9688H16.5125C15.1186 10.9688 13.2699 11.4121 12.4838 12.6468Z" fill="white"/>
</svg>
