<svg width="23" height="23" viewBox="0 0 23 23" fill="none" xmlns="http://www.w3.org/2000/svg">
<path d="M14.854 13.4167H14.097L13.8286 13.1579C14.7678 12.0654 15.3332 10.6471 15.3332 9.10417C15.3332 5.66375 12.5445 2.875 9.10405 2.875C5.66363 2.875 2.87488 5.66375 2.87488 9.10417C2.87488 12.5446 5.66363 15.3333 9.10405 15.3333C10.647 15.3333 12.0653 14.7679 13.1578 13.8288L13.4165 14.0971V14.8542L18.2082 19.6363L19.6361 18.2083L14.854 13.4167ZM9.10405 13.4167C6.71779 13.4167 4.79154 11.4904 4.79154 9.10417C4.79154 6.71792 6.71779 4.79167 9.10405 4.79167C11.4903 4.79167 13.4165 6.71792 13.4165 9.10417C13.4165 11.4904 11.4903 13.4167 9.10405 13.4167Z" fill="black"/>
</svg>
