<svg width="36" height="36" viewBox="0 0 36 36" fill="none" xmlns="http://www.w3.org/2000/svg">
<path fill-rule="evenodd" clip-rule="evenodd" d="M11.9867 4.54308C11.9902 6.19674 10.6526 7.5402 8.99891 7.54378C8.04858 7.54583 7.20067 7.10491 6.65067 6.41561L5.52962 6.792C4.90094 7.00306 4.57399 7.54407 4.62378 8.06662C4.83034 10.2348 5.37861 13.5913 6.78225 16.3594C8.16443 19.0851 10.2339 21.0152 13.5194 21.0081C16.8048 21.0009 18.8659 19.0619 20.2363 16.3303C21.628 13.5561 22.1618 10.1973 22.3589 8.02824C22.4064 7.50549 22.0772 6.96591 21.4475 6.75757L20.3249 6.38603C19.7779 7.0777 18.9319 7.52229 17.9816 7.52434C16.3279 7.52792 14.9845 6.19026 14.9809 4.5366C14.9773 2.88294 16.3149 1.53948 17.9686 1.5359C19.2124 1.53321 20.2808 2.28933 20.7355 3.36796L22.3883 3.91495C24.2058 4.51642 25.5267 6.25506 25.3408 8.29932C25.1323 10.5933 24.5564 14.3964 22.9127 17.6728C21.4228 20.6427 18.9442 23.3574 14.9839 23.903C15.0461 24.736 15.1802 25.6683 15.4407 26.587C15.818 27.9177 16.4345 29.1292 17.3914 30.0002C18.3178 30.8435 19.6783 31.4744 21.7763 31.4699C23.8742 31.4653 25.2321 30.8285 26.1547 29.9812C27.108 29.1059 27.719 27.8919 28.0907 26.5596C28.5364 24.9616 28.5993 23.3055 28.5712 22.2439C26.785 21.6537 25.4941 19.9725 25.4898 17.9879C25.4844 15.5074 27.491 13.4922 29.9714 13.4869C32.452 13.4815 34.4671 15.4879 34.4725 17.9685C34.4766 19.895 33.2674 21.5407 31.5649 22.1823C31.5965 23.4194 31.5333 25.3618 30.9749 27.364C30.5108 29.0276 29.6782 30.811 28.18 32.1866C26.6513 33.5903 24.5504 34.4581 21.7828 34.4641C19.0152 34.4701 16.9104 33.6114 15.3758 32.2143C13.8716 30.8452 13.0313 29.0654 12.5601 27.4039C12.2084 26.1637 12.0477 24.9385 11.9823 23.8975C8.06907 23.342 5.60361 20.6557 4.11173 17.7135C2.45395 14.4442 1.86149 10.6437 1.64304 8.35059C1.44837 6.30714 2.76173 4.56281 4.57661 3.95348L6.22711 3.39934C6.67709 2.31875 7.74215 1.55802 8.98596 1.55533C10.6396 1.55176 11.9831 2.88941 11.9867 4.54308ZM29.9845 19.5177C29.1343 19.5195 28.4435 18.8318 28.4417 17.9815C28.4398 17.1313 29.1276 16.4406 29.9778 16.4387C30.828 16.4369 31.5188 17.1247 31.5206 17.9749C31.5225 18.8251 30.8347 19.5159 29.9845 19.5177Z" fill="white"/>
</svg>
