<svg width="34" height="34" viewBox="0 0 34 34" fill="none" xmlns="http://www.w3.org/2000/svg">
<g clip-path="url(#clip0_207_530)">
<path d="M34 29.0417V24.7901H0V29.0417H10.625V32.5833H7.7917V34H26.2084V32.5833H23.375V29.0417H34Z" fill="white"/>
<path d="M0 0V23.3734H34V0H0ZM17 20.5401C7.41307 16.4644 8.54095 7.04805 8.54095 7.04805C14.7443 5.22099 17 2.83178 17 2.83178C17 2.83178 19.2558 5.22099 25.4591 7.04805C25.4591 7.04805 26.5869 16.4644 17 20.5401Z" fill="white"/>
<path d="M17.0002 7.2482C15.838 7.96868 14.2478 8.79347 12.1436 9.58007C12.4486 11.6054 13.5193 14.5857 17.0002 16.5928C20.4865 14.583 21.5553 11.5975 21.8589 9.58108C19.7532 8.79419 18.1629 7.9689 17.0002 7.2482Z" fill="white"/>
</g>
<defs>
<clipPath id="clip0_207_530">
<rect width="34" height="34" fill="white"/>
</clipPath>
</defs>
</svg>
