<svg width="22" height="22" viewBox="0 0 22 22" fill="none" xmlns="http://www.w3.org/2000/svg">
<g clip-path="url(#clip0_72_997)">
<path d="M11 9.94684C11.5807 9.94684 12.0532 10.4193 12.0532 11C12.0532 11.5808 11.5807 12.0532 11 12.0532C10.4193 12.0532 9.94678 11.5808 9.94678 11C9.94678 10.4193 10.4193 9.94684 11 9.94684ZM11 11.3511C11.1936 11.3511 11.351 11.1936 11.351 11C11.351 10.8064 11.1936 10.649 11 10.649C10.8064 10.649 10.6489 10.8064 10.6489 11C10.6489 11.1936 10.8064 11.3511 11 11.3511Z" fill="white"/>
<path d="M22 11C22 13.9696 20.1095 16.5059 17.4688 17.4688C16.5059 20.1095 13.9696 22 11 22C8.03033 22 5.49406 20.1095 4.53116 17.4688C1.8905 16.5059 0 13.9696 0 11C0 8.03037 1.8905 5.4941 4.53116 4.5312C5.49406 1.8905 8.03033 0 11 0C13.9696 0 16.5059 1.8905 17.4688 4.5312C20.1095 5.4941 22 8.03037 22 11ZM11 21.2979C13.4786 21.2979 15.6206 19.8312 16.6049 17.7203C16.1256 17.8263 15.6279 17.8827 15.1173 17.8827C13.6148 17.8827 12.1748 17.3905 11 16.5138C9.8252 17.3905 8.38528 17.8827 6.88277 17.8827C6.37209 17.8827 5.87442 17.8263 5.3952 17.7203C6.37939 19.8312 8.52144 21.2979 11 21.2979ZM17.1806 15.1173C17.1806 13.792 16.7612 12.563 16.0483 11.5556C14.7903 12.9137 12.9929 13.7654 11 13.7654C9.00713 13.7654 7.20968 12.9137 5.95166 11.5556C5.23881 12.563 4.8194 13.792 4.8194 15.1173C4.8194 15.7419 4.91288 16.3451 5.08603 16.9139C5.65484 17.0871 6.25802 17.1806 6.88272 17.1806C8.17398 17.1806 9.41375 16.7757 10.4427 16.0508C10.0786 15.714 9.74801 15.3361 9.4593 14.9201C9.34874 14.7608 9.3882 14.5421 9.54753 14.4315C9.70682 14.3209 9.9256 14.3605 10.0361 14.5198C10.3165 14.9238 10.641 15.2879 11 15.6084C11.3592 15.2878 11.6837 14.9235 11.9642 14.5193C12.0747 14.36 12.2934 14.3204 12.4527 14.431C12.612 14.5415 12.6516 14.7602 12.5411 14.9196C12.2523 15.3357 11.9216 15.7139 11.5573 16.0508C12.5863 16.7757 13.826 17.1806 15.1173 17.1806C15.7419 17.1806 16.3452 17.0871 16.914 16.914C17.0871 16.3451 17.1806 15.7419 17.1806 15.1173ZM16.914 5.08607C16.3452 4.91293 15.742 4.81945 15.1173 4.81945C13.826 4.81945 12.5862 5.22434 11.5573 5.94927C11.9215 6.28605 12.2521 6.66417 12.5408 7.08021C12.6514 7.2395 12.6119 7.45823 12.4526 7.5688C12.2933 7.67926 12.0746 7.63985 11.964 7.48051C11.6835 7.07637 11.3591 6.71215 11 6.39166C10.6409 6.71215 10.3165 7.07632 10.036 7.48042C9.92551 7.63962 9.70682 7.67926 9.54744 7.56866C9.3882 7.45809 9.34864 7.23936 9.4592 7.08007C9.74792 6.66408 10.0785 6.28601 10.4427 5.94927C9.41371 5.22434 8.17394 4.81945 6.88268 4.81945C6.25802 4.81945 5.6548 4.91293 5.08598 5.08612C4.91283 5.65494 4.81936 6.25811 4.81936 6.88277C4.81936 8.20801 5.23876 9.43706 5.95161 10.4445C7.20963 9.08633 9.00708 8.23465 11 8.23465C12.9928 8.23465 14.7903 9.08633 16.0483 10.4445C16.7611 9.43706 17.1805 8.20801 17.1805 6.88277C17.1806 6.25806 17.0871 5.65489 16.914 5.08607ZM13.0633 11C13.0633 9.86232 12.1377 8.93673 11 8.93673C9.86227 8.93673 8.93673 9.86232 8.93673 11C8.93673 12.1377 9.86227 13.0633 11 13.0633C12.1377 13.0633 13.0633 12.1377 13.0633 11ZM8.78362 9.34794C7.86041 9.70378 7.04356 10.2751 6.39474 11C7.04351 11.7249 7.86041 12.2962 8.78362 12.6521C8.43892 12.1908 8.2346 11.6189 8.2346 11C8.2346 10.3811 8.43892 9.80924 8.78362 9.34794ZM13.2164 9.34794C13.5611 9.80919 13.7654 10.3811 13.7654 11C13.7654 11.6189 13.5611 12.1908 13.2164 12.6521C14.1396 12.2962 14.9564 11.7249 15.6053 11C14.9564 10.2751 14.1395 9.70382 13.2164 9.34794ZM0.702128 11C0.702128 13.4785 2.16883 15.6205 4.27966 16.6048C4.17363 16.1256 4.11728 15.6279 4.11728 15.1173C4.11728 13.5747 4.62744 12.149 5.48788 11C4.62744 9.85104 4.11728 8.42535 4.11728 6.88272C4.11728 6.37209 4.17363 5.87442 4.27966 5.3952C2.16883 6.37948 0.702128 8.52149 0.702128 11ZM11 0.702127C8.52144 0.702127 6.37939 2.16883 5.39515 4.2797C5.87437 4.17368 6.37209 4.11732 6.88272 4.11732C8.38523 4.11732 9.8252 4.60947 11 5.48619C12.1748 4.60947 13.6148 4.11732 15.1173 4.11732C15.628 4.11732 16.1256 4.17373 16.6049 4.2797C15.6206 2.16883 13.4786 0.702127 11 0.702127ZM17.7203 5.3952C17.8263 5.87442 17.8827 6.37209 17.8827 6.88272C17.8827 8.42535 17.3726 9.85104 16.5121 11C17.3726 12.149 17.8827 13.5747 17.8827 15.1173C17.8827 15.6279 17.8263 16.1256 17.7203 16.6048C19.8312 15.6206 21.2979 13.4785 21.2979 11C21.2979 8.52149 19.8312 6.37944 17.7203 5.3952Z" fill="white"/>
</g>
<defs>
<clipPath id="clip0_72_997">
<rect width="22" height="22" fill="white" transform="matrix(1 0 0 -1 0 22)"/>
</clipPath>
</defs>
</svg>
