<svg width="23" height="21" viewBox="0 0 23 21" fill="none" xmlns="http://www.w3.org/2000/svg">
<g clip-path="url(#clip0_26_402)">
<path d="M22.1931 5.23588C21.9324 4.25046 21.1643 3.47438 20.1891 3.21101C18.4215 2.73242 11.3334 2.73242 11.3334 2.73242C11.3334 2.73242 4.24537 2.73242 2.47767 3.21101C1.50246 3.47442 0.734389 4.25046 0.473703 5.23588C6.10352e-05 7.02201 6.10352e-05 10.7486 6.10352e-05 10.7486C6.10352e-05 10.7486 6.10352e-05 14.4752 0.473703 16.2613C0.734389 17.2467 1.50246 17.9905 2.47767 18.2538C4.24537 18.7324 11.3334 18.7324 11.3334 18.7324C11.3334 18.7324 18.4214 18.7324 20.1891 18.2538C21.1643 17.9905 21.9324 17.2467 22.1931 16.2613C22.6667 14.4752 22.6667 10.7486 22.6667 10.7486C22.6667 10.7486 22.6667 7.02201 22.1931 5.23588ZM9.0152 14.132V7.36513L14.9394 10.7487L9.0152 14.132Z" fill="#ECA30C"/>
</g>
<defs>
<clipPath id="clip0_26_402">
<rect width="22.6667" height="20" fill="white" transform="translate(0 0.732422)"/>
</clipPath>
</defs>
</svg>
