<svg width="18" height="16" viewBox="0 0 18 16" fill="none" xmlns="http://www.w3.org/2000/svg">
<g clip-path="url(#clip0_1_52)">
<path d="M17.5175 3.87759C17.3219 3.13853 16.7459 2.55647 16.0145 2.35894C14.6887 2 9.37268 2 9.37268 2C9.37268 2 4.05666 2 2.73089 2.35894C1.99948 2.5565 1.42343 3.13853 1.22791 3.87759C0.872681 5.21719 0.872681 8.01213 0.872681 8.01213C0.872681 8.01213 0.872681 10.8071 1.22791 12.1467C1.42343 12.8857 1.99948 13.4435 2.73089 13.6411C4.05666 14 9.37268 14 9.37268 14C9.37268 14 14.6887 14 16.0145 13.6411C16.7459 13.4435 17.3219 12.8857 17.5175 12.1467C17.8727 10.8071 17.8727 8.01213 17.8727 8.01213C17.8727 8.01213 17.8727 5.21719 17.5175 3.87759ZM7.63403 10.5497V5.47453L12.0772 8.01219L7.63403 10.5497Z" fill="white"/>
</g>
<defs>
<clipPath id="clip0_1_52">
<rect width="17" height="15" fill="white" transform="translate(0.87262 0.5)"/>
</clipPath>
</defs>
</svg>
